<svg width="100%" height="100%" viewBox="0 0 280 251" fill="none" xmlns="http://www.w3.org/2000/svg">
<path d="M24.4006 177.696L15.1609 165.649C9.85754 158.738 4.05867 152.156 0.718821 144.637C0.00313935 143.018 -0.547385 141.684 0.948207 140.326L12.6927 129.68L27.3734 115.127L34.6403 108.147C36.2277 106.615 39.2922 105.226 42.1642 104.891C44.7333 104.593 46.9537 106.262 47.7795 107.788C53.1655 117.732 59.4873 127.075 66.1028 136.678L74.0395 148.21L79.1594 155.76C84.8023 151.715 89.2707 147.689 93.9685 143.161L137.185 101.485L190.943 51.6824C203.018 40.4973 215.286 29.7651 229.113 19.6533L235.169 15.2301L247.648 6.84284L258.19 0.80675C258.768 0.47796 259.805 0.0685271 260.392 0.00649122C263.319 -0.303688 267.136 10.5836 268.852 15.2487L275.33 32.8607C277.495 38.7479 279.972 44.6289 280 50.7332C279.982 53.2953 275.467 55.0447 273.265 56.5522L263.53 63.2087C247.941 75.3305 232.838 87.4399 218.763 100.48L165.784 149.544C153.343 161.07 142.121 172.702 131.184 184.917C118.302 199.309 106.374 213.764 97.0607 229.322L89.3808 243.237L86.7291 247.387C86.0043 248.516 84.105 250.191 82.4717 250.625C77.9391 251.823 74.3056 249.968 72.0668 247.641L63.4328 238.671C59.3038 234.378 55.8814 230.017 53.4224 225.178L48.9264 216.351C42.1366 203.013 33.9705 190.196 24.4006 177.702V177.696ZM14.6563 156.566L25.6025 170.028L32.5392 178.881C43.2927 192.616 51.7708 206.778 59.5516 221.382C61.8271 225.65 64.1576 229.49 67.7269 233.249L78.8291 244.937C80.1412 244.149 81.0129 243.386 81.5083 242.406C89.546 226.376 99.9417 211.307 112.163 196.487C127.661 177.69 144.901 159.978 163.445 142.54L184.163 123.055C203.963 104.425 224.727 86.6334 247.125 69.4619L258.97 61.2669C262.723 58.6676 265.751 55.4976 269.439 52.8239L274.752 48.9652L269.898 36.1982L264.833 21.8555L258.575 3.10208L247.354 10.8069L232.829 22.1719C218.204 33.6175 205.037 45.5098 191.925 57.7991L171.987 76.4843L138.038 109.246L128.046 118.613L104.474 141.479C97.7947 147.956 91.3994 154.011 83.5636 159.91C81.389 161.554 75.9756 162.497 74.2598 159.997L58.0835 136.343L50.6973 125.319L45.6875 117.298L41.6412 110.337C37.4296 113.259 34.7871 115.871 31.5666 118.805L23.8225 125.846C17.8126 131.312 11.8027 136.43 5.12302 141.591C5.37076 142.701 5.6185 144.618 6.26078 145.468L14.6287 156.573L14.6563 156.566Z" fill="#131313"/>
</svg>
