<svg width="1142" height="1142" viewBox="0 0 1142 1142" fill="none" xmlns="http://www.w3.org/2000/svg">
<g clip-path="url(#clip0_1174_1594)">
<path d="M1142 571.5C1142 887.123 886.347 1143 571 1143C255.653 1143 0 887.123 0 571.5C0 255.877 255.653 0 571 0C886.347 0 1142 255.877 1142 571.5ZM1109.44 568.613C1109.44 270.91 868.315 29.5736 570.872 29.5736C273.429 29.5736 32.3038 270.91 32.3038 568.613C32.3038 866.317 273.429 1107.65 570.872 1107.65C868.315 1107.65 1109.44 866.317 1109.44 568.613Z" fill="#131313"/>
<path d="M557.973 782.496L563.045 749.466L568.031 703.276L571.327 667.696L572.996 650.721L576.206 623.136L580.571 585.862L582.497 563.593C583.91 547.389 585.172 532.042 586.67 515.86L592.041 458.46L594.973 432.526L596.792 410.642L600.152 377.912C601.072 369.06 601.693 360.272 600.237 351.013C577.918 370.475 557.845 386.186 534.669 401.532L460.969 450.337C444.256 461.418 428.271 471.428 409.611 479.037C403.234 481.63 393.518 480.108 389.795 474.536C383.439 465.041 388.81 455.181 397.028 449.094L475.136 391.201L555.47 333.738C573.595 320.77 588.617 305.981 607.278 293.464L624.012 288.191C627.864 286.991 635.44 291.727 638.756 294.707C639.655 309.775 637.858 323.599 636.745 338.174L632.979 387.493L629.255 430.704L625.917 468.363L624.333 490.568L621.145 526.405L616.201 577.482L610.894 618.613L609.204 636.36L604.004 670.697L599.253 711.7L597.049 725.46L592.298 761.619L587.355 792.334L582.198 822.898L577.618 840.71C576.334 845.682 574.494 852.798 568.887 854.556C561.911 856.742 554.507 850.526 553.094 843.196C551.34 834.129 551.832 822.727 553.265 813.36L557.973 782.431V782.496Z" fill="#131313"/>
</g>
<defs>
<clipPath id="clip0_1174_1594">
<rect width="1142" height="1142" fill="white"/>
</clipPath>
</defs>
</svg>
