<svg width="853" height="853" viewBox="0 0 853 853" fill="none" xmlns="http://www.w3.org/2000/svg">
<path d="M831.644 538.011C838.172 538.939 841.496 540.927 845.221 544.538C850.413 549.564 852.227 554.589 851.978 562.154C851.673 571.034 845.623 578.776 836.868 581.073L825.735 584H45.3178L40.3212 583.216C31.9574 583.348 23.3981 582.156 14.904 579.317C4.78055 575.938 0.54435 561.823 7.23538 553.175C12.1559 546.813 19.0967 543.014 27.2541 542.948L124.013 542.219L185.547 541.302L254.076 540.352L357.993 539.237L518.078 538.596L831.655 538L831.644 538.011Z" fill="#131313"/>
<path d="M822.502 268C826.843 268 830.977 268.78 834.005 270.036C839.083 272.147 844.336 277.647 845.996 282.942C847.32 287.165 847.32 293.131 846.083 297.397C844.922 301.393 840.451 306.438 836.685 308.203C832.507 310.163 827.092 313 822.035 313L39.2884 313L27.0802 311.95C21.2528 311.452 14.3077 310.228 9.00116 307.716C-0.548375 303.19 -2.66446 290.045 3.44507 282.325C8.83838 275.504 16.2718 272.883 25.0292 272.829L136.824 272.082L190.985 271.14L270.376 270.252L370.668 269.408L590.036 268.531L822.502 268.011V268Z" fill="#131313"/>
</svg>
