<svg width="100" height="100" viewBox="0 0 100 100" fill="none" xmlns="http://www.w3.org/2000/svg">
<path fill-rule="evenodd" clip-rule="evenodd" d="M8.33325 25C8.33325 15.7953 15.7952 8.33337 24.9999 8.33337H74.9999C84.2045 8.33337 91.6666 15.7953 91.6666 25V75C91.6666 84.2046 84.2045 91.6667 74.9999 91.6667H24.9999C15.7952 91.6667 8.33325 84.2046 8.33325 75V25ZM24.9999 16.6667C20.3975 16.6667 16.6666 20.3977 16.6666 25V75C16.6666 79.6025 20.3975 83.3334 24.9999 83.3334H49.9999V54.1667H45.8333C43.532 54.1667 41.6666 52.3013 41.6666 50C41.6666 47.6988 43.532 45.8334 45.8333 45.8334H49.9999V39.5834C49.9999 31.5292 56.5291 25 64.5832 25H67.0833C69.3845 25 71.2499 26.8655 71.2499 29.1667C71.2499 31.4679 69.3845 33.3334 67.0833 33.3334H64.5832C61.1316 33.3334 58.3333 36.1316 58.3333 39.5834V45.8334H67.0833C69.3845 45.8334 71.2499 47.6988 71.2499 50C71.2499 52.3013 69.3845 54.1667 67.0833 54.1667H58.3333V83.3334H74.9999C79.6024 83.3334 83.3333 79.6025 83.3333 75V25C83.3333 20.3977 79.6024 16.6667 74.9999 16.6667H24.9999Z" fill="#131313"/>
</svg>
