<svg width="376" height="239" viewBox="0 0 376 239" fill="none" xmlns="http://www.w3.org/2000/svg">
<g filter="url(#filter0_di_1903_6630)">
<g clip-path="url(#clip0_1903_6630)">
<mask id="mask0_1903_6630" style="mask-type:alpha" maskUnits="userSpaceOnUse" x="0" y="0" width="430" height="231">
<path d="M0 20C0 8.95433 8.95431 0 20 0H410C421.046 0 430 8.9543 430 20V210.078C430 221.124 421.046 230.078 410 230.078H20C8.95432 230.078 0 221.124 0 210.078V20Z" fill="#D9D9D9"/>
</mask>
<g mask="url(#mask0_1903_6630)">
<path d="M302.334 -0.0688477H366.667V230.069H205.504L302.334 -0.0688477Z" fill="#007D19"/>
<path d="M166.731 -0.116211H302.287L205.504 230.116H73.3333L166.731 -0.116211Z" fill="#00A71F"/>
<path d="M0 -0.0688477H167.132L73.6176 230.069H0V-0.0688477Z" fill="#00D125"/>
</g>
<rect x="0.503947" y="0.495845" width="33.1159" height="26.2927" rx="4.5" transform="matrix(0.999966 -0.00827888 0.00792827 0.999969 23.2355 101.966)" fill="#FFD78E" stroke="#38362E"/>
<line y1="-0.5" x2="27.2958" y2="-0.5" transform="matrix(-0.00792857 -0.999969 0.999966 -0.00827857 35.053 129.156)" stroke="#38362E"/>
<line y1="-0.5" x2="10.9171" y2="-0.5" transform="matrix(0.999966 -0.0082785 0.00792845 0.999969 24.0607 119.693)" stroke="#38362E"/>
<line y1="-0.5" x2="10.9171" y2="-0.5" transform="matrix(0.999966 -0.0082785 0.00792845 0.999969 24.0067 112.869)" stroke="#38362E"/>
<line y1="-0.5" x2="10.9171" y2="-0.5" transform="matrix(0.999966 -0.0082785 0.00792845 0.999969 45.8941 119.512)" stroke="#38362E"/>
<line y1="-0.5" x2="10.9171" y2="-0.5" transform="matrix(0.999966 -0.0082785 0.00792845 0.999969 35.0151 124.379)" stroke="#38362E"/>
<line y1="-0.5" x2="10.9171" y2="-0.5" transform="matrix(0.999966 -0.0082785 0.00792845 0.999969 34.8799 107.32)" stroke="#38362E"/>
<line y1="-0.5" x2="10.9171" y2="-0.5" transform="matrix(0.999966 -0.0082785 0.00792845 0.999969 45.84 112.688)" stroke="#38362E"/>
<line y1="-0.5" x2="27.2958" y2="-0.5" transform="matrix(-0.00792857 -0.999969 0.999966 -0.00827857 45.9698 129.065)" stroke="#38362E"/>
<path d="M88.9863 132.445C89.8842 132.9 90.9851 132.542 91.3993 131.624C93.7738 126.365 95.0003 120.652 94.9881 114.869C94.9759 109.085 93.7252 103.378 91.3286 98.1307C90.9105 97.2151 89.8081 96.8627 88.9122 97.322C88.0162 97.7812 87.6663 98.878 88.0804 99.7954C90.217 104.53 91.3316 109.669 91.3426 114.878C91.3536 120.086 90.2607 125.231 88.1441 129.976C87.7339 130.895 88.0884 131.99 88.9863 132.445Z" fill="#FDFAF0"/>
<path d="M82.7721 129.297C83.6814 129.758 84.7972 129.396 85.2074 128.462C87.0852 124.19 88.0542 119.566 88.0444 114.886C88.0345 110.206 87.046 105.587 85.1501 101.323C84.736 100.392 83.6187 100.035 82.7113 100.5C81.8039 100.965 81.4508 102.076 81.8586 103.01C83.4925 106.753 84.344 110.797 84.3526 114.895C84.3612 118.992 83.5269 123.041 81.9088 126.792C81.5049 127.728 81.8628 128.837 82.7721 129.297Z" fill="#FDFAF0"/>
<path d="M76.563 126.152C77.4809 126.617 78.6087 126.252 79.0086 125.304C80.3942 122.018 81.1082 118.481 81.1006 114.903C81.0931 111.324 80.3642 107.791 78.9647 104.512C78.5608 103.566 77.4315 103.206 76.5156 103.676C75.5997 104.145 75.2452 105.266 75.6382 106.217C76.7759 108.968 77.3678 111.922 77.3741 114.912C77.3805 117.902 76.801 120.858 75.675 123.616C75.2859 124.569 75.6452 125.687 76.563 126.152Z" fill="#FDFAF0"/>
<path d="M70.4521 123.057C71.3243 123.499 72.3979 123.152 72.7598 122.243C73.686 119.918 74.1622 117.433 74.1569 114.92C74.1516 112.407 73.6649 109.924 72.7289 107.603C72.3632 106.696 71.2881 106.355 70.4177 106.801C69.5474 107.247 69.2132 108.312 69.561 109.226C70.2524 111.043 70.6115 112.975 70.6156 114.929C70.6197 116.883 70.2688 118.816 69.585 120.637C69.2411 121.552 69.5798 122.615 70.4521 123.057Z" fill="#FDFAF0"/>
<path d="M295.847 192.284H329M295.847 192.284C295.847 201.439 303.269 208.861 312.424 208.861M295.847 192.284C295.847 183.129 303.269 175.708 312.424 175.708M329 192.284C329 201.439 321.579 208.861 312.424 208.861M329 192.284C329 183.129 321.579 175.708 312.424 175.708M312.424 208.861C299.081 194.273 306.864 180.681 312.424 175.708M312.424 208.861C325.767 194.273 317.983 180.681 312.424 175.708" stroke="#FDFAF0" stroke-width="4" stroke-linecap="round" stroke-linejoin="round"/>
</g>
<rect x="0.5" y="0.5" width="365.667" height="229.078" rx="19.5" stroke="#FDFAF0" stroke-opacity="0.5" shape-rendering="crispEdges"/>
</g>
<defs>
<filter id="filter0_di_1903_6630" x="0" y="0" width="375.667" height="238.078" filterUnits="userSpaceOnUse" color-interpolation-filters="sRGB">
<feFlood flood-opacity="0" result="BackgroundImageFix"/>
<feColorMatrix in="SourceAlpha" type="matrix" values="0 0 0 0 0 0 0 0 0 0 0 0 0 0 0 0 0 0 127 0" result="hardAlpha"/>
<feOffset dx="5" dy="4"/>
<feGaussianBlur stdDeviation="2"/>
<feComposite in2="hardAlpha" operator="out"/>
<feColorMatrix type="matrix" values="0 0 0 0 0.0745098 0 0 0 0 0.0745098 0 0 0 0 0.0745098 0 0 0 0.25 0"/>
<feBlend mode="normal" in2="BackgroundImageFix" result="effect1_dropShadow_1903_6630"/>
<feBlend mode="normal" in="SourceGraphic" in2="effect1_dropShadow_1903_6630" result="shape"/>
<feColorMatrix in="SourceAlpha" type="matrix" values="0 0 0 0 0 0 0 0 0 0 0 0 0 0 0 0 0 0 127 0" result="hardAlpha"/>
<feOffset dx="5" dy="4"/>
<feGaussianBlur stdDeviation="2"/>
<feComposite in2="hardAlpha" operator="arithmetic" k2="-1" k3="1"/>
<feColorMatrix type="matrix" values="0 0 0 0 0.992157 0 0 0 0 0.980392 0 0 0 0 0.941176 0 0 0 0.25 0"/>
<feBlend mode="normal" in2="shape" result="effect2_innerShadow_1903_6630"/>
</filter>
<clipPath id="clip0_1903_6630">
<rect width="366.667" height="230.078" rx="20" fill="white"/>
</clipPath>
</defs>
</svg>
