<svg width="100" height="100" viewBox="0 0 100 100" fill="none" xmlns="http://www.w3.org/2000/svg">
<path fill-rule="evenodd" clip-rule="evenodd" d="M8.33325 25C8.33325 15.7953 15.7952 8.33337 24.9999 8.33337H74.9999C84.2045 8.33337 91.6666 15.7953 91.6666 25V75C91.6666 84.2046 84.2045 91.6667 74.9999 91.6667H24.9999C15.7952 91.6667 8.33325 84.2046 8.33325 75V25ZM24.9999 16.6667C20.3975 16.6667 16.6666 20.3977 16.6666 25V75C16.6666 79.6025 20.3975 83.3334 24.9999 83.3334H74.9999C79.6024 83.3334 83.3333 79.6025 83.3333 75V25C83.3333 20.3977 79.6024 16.6667 74.9999 16.6667H24.9999ZM49.9999 37.5C43.0962 37.5 37.4999 43.0963 37.4999 50C37.4999 56.9038 43.0962 62.5 49.9999 62.5C56.9037 62.5 62.4999 56.9038 62.4999 50C62.4999 43.0963 56.9037 37.5 49.9999 37.5ZM29.1666 50C29.1666 38.4941 38.494 29.1667 49.9999 29.1667C61.5057 29.1667 70.8332 38.4941 70.8332 50C70.8332 61.5059 61.5057 70.8334 49.9999 70.8334C38.494 70.8334 29.1666 61.5059 29.1666 50ZM72.9166 33.3334C76.3682 33.3334 79.1666 30.5352 79.1666 27.0834C79.1666 23.6316 76.3682 20.8334 72.9166 20.8334C69.4649 20.8334 66.6666 23.6316 66.6666 27.0834C66.6666 30.5352 69.4649 33.3334 72.9166 33.3334Z" fill="#FDFAF0"/>
</svg>
