<svg width="100%" height="100%" viewBox="0 0 316 187" fill="none" xmlns="http://www.w3.org/2000/svg">
<path d="M56.8858 138.611C55.9452 134.104 56.8434 130.058 56.898 125.708L57.1225 107.866L57.2317 105.242L57.165 100.182L56.9465 95.6132C56.7766 92.108 56.1273 88.8519 56.6977 85.3224C57.0922 82.8439 57.171 80.3836 56.8555 77.905C56.2305 72.9966 57.4866 69.0783 56.9465 64.2427L56.2669 58.1618C55.8239 54.1828 55.569 50.5804 56.2911 46.5588L56.898 43.169C57.1771 41.5956 57.6687 39.3966 58.9187 38.3031C61.9954 35.6119 65.9277 34.7979 69.8782 34.9862L73.2765 35.5086C75.5036 35.8488 77.8035 35.6484 80.158 35.7516L82.7734 36.3045L90.7169 36.2316L100.281 35.5086C103.497 35.2657 106.847 34.5245 110.014 35.6362C110.548 35.8245 111.58 35.3264 112.12 35.2049C114.766 34.6278 117.685 35.3993 120.549 35.5633L124.712 35.1198L127.127 35.6848H162.463L166.741 35.0591L170.862 34.561L174.776 33.8077L194.17 33.7287C194.638 33.8927 195.718 34.2572 196.221 34.3119L201.586 34.8586L210.725 35.1442C214.876 35.2717 216.654 33.7287 219.366 34.6399C221.174 35.2474 222.425 34.7857 224.148 34.6096L231.697 33.8441L248.1 33.6194L251.534 33.5647C253.792 33.5282 256.025 34.8708 257.123 36.8755C258.744 39.8279 259.181 42.9625 259.175 46.2308V50.6472L258.865 57.4267L258.628 65.4759L258.525 78.7616L258.507 85.529L258.319 96.5488L258.113 107.174L257.821 111.851L257.609 124.694L257.566 128.466L257.579 135.841L257.196 140.391C256.996 142.766 256.838 145.154 255.139 146.994C253.44 148.835 251.152 151.071 248.452 151.083L240.884 151.107L235.908 150.755C233.693 150.597 231.673 150.639 229.47 150.755L223.644 151.071C214.159 151.581 204.899 151.32 195.42 150.706L174.394 150.475C172.931 150.457 171.808 150.621 170.425 150.834L167.148 151.332C165.321 151.611 163.707 151.271 161.82 151.216L150.478 150.876C148.372 150.815 146.691 150.481 144.543 150.743C141.94 151.064 139.051 151.016 136.418 150.755C134.713 150.585 133.353 150.755 131.672 150.773L117.915 150.973L103.988 151.016L88.5323 150.743C81.9967 150.627 75.6371 150.226 69.0529 150.743C63.9797 151.137 59.0583 148.057 57.1164 143.204L56.8737 138.611H56.8858ZM60.3873 43.4363L60.1749 46.2672L60.0414 53.229L59.9018 56.5276C62.3959 56.0842 64.5502 55.3309 66.9229 55.5557L76.8325 56.4912C82.3001 56.5337 87.5796 55.7683 93.0411 55.9566L112.235 56.6188C120.767 56.9164 128.899 56.2482 137.413 55.8169C144.185 55.4706 150.733 55.8533 157.536 56.0538L175.722 56.5884L183.963 55.7987L204.505 54.9846C214.53 54.5837 224.233 54.8267 234.246 55.3613L250.127 56.9043C251.886 57.0744 253.404 57.2384 255.127 57.773L254.933 49.657L254.447 45.2649C254.308 43.9831 254.368 43.005 253.98 41.7111C253.622 40.5325 252.967 37.9507 251.443 37.7989L246.407 37.2886L241.564 38.1573L237.814 38.0358L235.18 38.212L227.789 38.5157C225.513 38.9166 223.62 38.9166 221.272 38.704L218.444 38.4489L214.032 38.4185L196.246 38.1755L188.26 38.1634L176.784 38.4124L169.326 39.4877L163.282 39.7793L155.466 39.755L148.281 39.5181L141.461 38.7951L133.238 38.4367L114.238 38.376L109.614 38.9409C105.955 38.9288 102.581 39.0685 99.0245 39.6578C94.9648 39.5545 91.081 39.6578 87.1002 40.3199C83.6473 39.8036 80.3279 39.6031 76.8507 39.591L69.2228 39.8218C66.5709 39.9008 60.7514 38.4914 60.3873 43.4303V43.4363ZM210.276 145.706L215.786 146.022L221.49 146.132C223.59 146.174 225.629 146.132 227.753 146.095L241.206 145.864L247.208 145.664C249.659 145.585 252.499 143.987 252.888 141.436L253.713 135.956L253.98 123.612L254.32 113.006L254.563 100.315L254.654 97.5754L254.617 90.1641L254.544 79.3812L255.066 76.1555L247.129 75.548L235.726 75.8153L231.946 75.6634L224.567 75.5966C217.813 75.5358 211.234 75.548 204.493 74.576C200.815 75.3293 197.283 75.7485 193.57 75.706L183.648 75.305L173.417 74.8372L166.687 74.5457C161.456 74.3209 156.231 74.0718 150.909 74.4545C141.084 75.1592 131.654 74.9952 121.823 74.9952H109.407L101.974 74.5639C94.8131 74.8919 87.9073 75.9489 80.7466 75.0863L73.853 74.6914C69.5141 74.4424 65.2298 74.4971 60.9334 74.8858L61.3825 91.3001L62.0986 99.4768C62.578 104.993 62.3352 110.393 62.0986 115.903L61.6616 126.042L61.6009 137.177L61.8315 143.04C65.8609 146.393 68.5796 145.324 69.8236 145.439L76.1711 146.047L79.8971 146.685C82.9798 147.213 85.9472 147.171 89.036 146.502C90.5227 146.18 91.967 146.849 93.3991 146.849L106.58 146.836H109.614L124.354 147.092L138.718 147.037L141.169 146.508L152.098 146.527C153.476 146.527 154.562 146.982 155.994 146.739C157.238 146.527 158.859 146.514 160.115 146.703C162.324 147.037 164.162 146.624 166.359 146.533L174.709 146.199L177.695 145.652L192.932 145.682H210.282L210.276 145.706Z" fill="#131313"/>
<path d="M269.186 184.896L261.752 185.345C259.125 185.503 257.438 184.301 256.885 181.804C256.224 178.803 256.891 175.844 257.013 172.728L257.231 166.787C257.268 165.839 258.76 165.213 259.701 165.201L273.082 164.982L278.398 164.636L291.117 164.496C291.457 163.215 292.173 161.714 292.076 160.524L291.718 156.107L291.257 148.568V140.671L291.451 137.318L292.1 130.325C292.179 129.505 292.622 128.333 293.107 127.835C293.563 127.367 295.001 127.075 295.717 127.13L300.741 127.495L308.606 127.871C311.907 128.029 314.219 130.332 313.94 133.703L314.177 140.276L314.486 146.235L314.656 156.775L315.044 165.128L315.014 172.394L314.595 180.34C314.456 182.952 313.758 185.066 310.936 185.698C309.959 185.916 308.145 186.287 307.04 186.214L294.776 185.412L286.232 185.424L272.645 185.443L269.186 184.896ZM260.259 181.044L266.285 181.597L283.21 181.464L303.672 181.494C306.063 181.494 308.248 182.794 310.888 181.694L311.082 167.795L310.748 160.493L310.639 134.481C310.639 133.582 310.159 132.3 309.589 131.656C305.669 131.036 301.755 130.975 297.768 130.915C297.034 130.903 296.008 130.684 295.389 131.018C294.728 133.703 294.819 136.57 294.655 139.298C294.424 143.046 294.509 146.485 294.637 150.233L294.837 155.858C294.91 157.924 295.231 159.946 294.91 161.939L294.303 165.681C294.103 166.902 293.113 167.789 291.803 167.789L279.229 167.826L275.272 168.105L262.996 168.488L259.203 169.223L259.021 176.415C258.979 178.037 259.452 179.805 260.259 181.044Z" fill="#131313"/>
<path d="M53.5108 185.351L46.071 184.902L42.4178 185.424H28.8429L20.2987 185.418L8.02844 186.22C6.91793 186.293 5.12169 185.916 4.13862 185.698C1.31077 185.066 0.612902 182.97 0.479398 180.346L0.06675 172.406L0 165.711L0.418716 156.787L0.588629 146.248L0.898117 140.288L1.13478 133.709C0.861706 130.344 3.16768 128.035 6.46887 127.877L14.3335 127.501L19.3581 127.142C20.0863 127.087 21.5245 127.361 21.9675 127.841C22.459 128.369 22.902 129.499 22.9809 130.338L23.6302 137.33L23.8183 140.683V148.58L23.3632 156.119L23.0051 160.536C22.908 161.732 23.6241 163.227 23.9639 164.509L36.6832 164.648L41.9991 165.001L55.3798 165.219C56.3204 165.238 57.8132 165.857 57.8497 166.805L58.0742 172.746C58.238 177.108 60.2527 185.771 53.5229 185.364L53.5108 185.351ZM56.0534 176.774L55.8774 169.223L52.376 168.512L39.8024 168.111L35.8458 167.825L23.2661 167.789C21.9553 167.789 20.9662 166.902 20.7659 165.681L20.153 161.939C19.8253 159.94 20.153 157.923 20.2258 155.858L20.42 150.233C20.5475 146.497 20.6385 143.022 20.4018 139.31C20.2198 136.4 20.3775 133.636 19.5826 130.811L17.2887 130.884L7.36699 131.322C6.6934 131.352 5.61323 131.638 5.21272 131.996C4.8122 132.354 4.44204 133.539 4.43597 134.207L4.30853 160.487L3.98084 167.789L4.17503 181.694C6.71767 182.751 8.82339 181.524 11.1294 181.518L31.8528 181.457L47.5881 181.591L50.7557 181.451L54.7912 180.965C55.5315 180.109 56.0777 178.098 56.0473 176.768L56.0534 176.774Z" fill="#131313"/>
<path d="M24.1465 37.6595V45.5568L23.9524 48.9101C23.7764 52.0205 23.6793 56.9593 22.2957 58.393C21.8345 58.8668 20.4024 59.1463 19.6863 59.0977L14.9833 58.7636L6.52403 58.3383C3.31994 58.1804 1.18994 55.7261 1.46302 52.5429C1.65721 50.3377 1.33558 48.1569 1.22028 45.9517L0.910798 39.9923L0.740882 29.4524L0.358575 21.0995C0.243276 18.6209 0.176526 16.3246 0.388919 13.8339C0.613448 11.1792 0.86225 8.51845 0.807635 5.89412C0.753019 3.26978 1.64507 1.17396 4.46685 0.542175C5.44993 0.32348 7.25223 -0.0956854 8.35667 0.0197368C12.562 0.457126 16.4337 0.821613 20.6269 0.821613H28.8738L42.9949 0.833765C43.808 0.833765 45.1734 1.38658 46.0594 1.33191L53.6509 0.888436C56.2785 0.736565 57.9716 1.92724 58.5177 4.424C59.1792 7.42498 58.5056 10.3895 58.3903 13.4998L58.1718 19.4471C58.1354 20.3826 56.6305 21.063 55.702 21.0387C51.1265 20.9111 46.8179 20.9598 42.3213 21.2513L37.0054 21.5976L24.2861 21.7373C23.9523 23.0191 23.2363 24.5196 23.3334 25.7042L23.6914 30.1206L24.1526 37.6595H24.1465ZM23.7642 18.4387L36.174 18.4022L40.1367 18.1289L52.4129 17.7462L56.2057 17.0111L56.3816 10.4746C56.4302 8.70677 56.1996 6.48338 55.1012 5.25019L51.1022 4.78242L47.9284 4.63662L32.1992 4.77027L11.7367 4.7399C9.33974 4.7399 7.16727 3.45202 4.5154 4.53335L4.32121 19.4289L4.66711 25.7407L4.77027 52.0205C4.77027 52.6826 5.14651 53.8733 5.55309 54.2317C5.95967 54.5901 7.03984 54.8756 7.70736 54.906L16.6825 55.3009L19.9048 55.471C20.7179 52.5976 20.5541 49.8274 20.7422 46.9176C20.9789 43.2059 20.8878 39.7371 20.7604 35.995L20.5662 30.3697C20.4934 28.3043 20.1657 26.2874 20.4934 24.2888L21.1002 20.5588C21.3065 19.3013 22.2532 18.4448 23.7642 18.4448V18.4387Z" fill="#131313"/>
<path d="M291.918 37.5015L292.222 33.0183L292.756 25.9775C292.738 24.7747 292.155 23.092 291.785 21.7373L279.06 21.5976L273.75 21.2513L260.357 21.0387C259.617 21.0265 257.984 20.4373 257.954 19.6779L257.675 13.4998C257.535 10.3895 256.886 7.42494 257.553 4.42396C258.106 1.9272 259.793 0.736523 262.42 0.888394L270.006 1.32578L273.07 0.827652L287.191 0.809428H295.438L307.708 0.0136143C308.819 -0.0592839 310.615 0.317357 311.604 0.536052C314.426 1.16176 315.124 3.26367 315.263 5.888L315.682 13.8278L315.713 21.0934L315.324 29.4463L315.154 39.9861L314.845 45.9456L314.608 52.5246C314.887 55.8962 312.575 58.2046 309.268 58.3687L301.082 58.7635L296.379 59.0916C295.663 59.1402 294.224 58.8607 293.769 58.3869C293.29 57.8887 292.835 56.7041 292.762 55.8962L292.113 48.904L291.925 45.5507V37.5015H291.918ZM294.989 20.6863L295.535 24.0032C295.881 26.1233 295.584 28.1949 295.505 30.3757L295.305 36.001C295.171 39.7371 295.086 43.2119 295.323 46.9176C295.505 49.8335 295.353 52.5854 296.154 55.4709L299.049 55.313L308.352 54.8999C309.025 54.8695 310.099 54.5779 310.512 54.2256C310.925 53.8733 311.283 52.6826 311.283 52.0144L311.404 25.7345L311.732 18.4326L311.537 4.53331C308.995 3.46413 306.883 4.70341 304.595 4.70948L283.86 4.75808L268.131 4.62443L264.963 4.77022L260.921 5.24406C260.102 6.22819 259.635 8.30579 259.671 9.78806L259.853 17.005L263.343 17.7036L275.922 18.1106L279.879 18.3961L292.452 18.4265C293.8 18.4265 294.758 19.283 294.983 20.6681L294.989 20.6863Z" fill="#131313"/>
<path d="M9.03032 121.48C9.03032 121.717 7.91374 121.602 7.92588 121.371L7.9987 120.029L8.114 109.726C8.94536 110.716 9.12135 111.791 9.10921 113.194L9.03639 121.48H9.03032Z" fill="#131313"/>
<path d="M307.321 120.813C307.321 121.062 306.204 120.94 306.216 120.709L306.289 119.373L306.404 109.07C307.236 110.06 307.412 111.135 307.399 112.539L307.327 120.819L307.321 120.813Z" fill="#131313"/>
<path d="M206.391 177.642C204.352 178.657 202.58 178.31 200.511 178.407C198.247 178.517 195.68 179.276 193.568 177.587L202.167 177.49C203.527 177.472 204.795 177.411 206.391 177.642Z" fill="#131313"/>
<path d="M205.403 8.44573C203.364 9.46023 201.592 9.11396 199.522 9.21116C197.259 9.32051 194.692 10.0799 192.58 8.39106L201.179 8.29386C202.538 8.27563 203.807 8.21489 205.403 8.44573Z" fill="#131313"/>
<path d="M189.818 8.29947C186.389 9.80603 182.961 9.235 179.817 8.67611L180.006 7.63124C180.042 7.43077 180.637 7.92891 180.837 8.10508L189.818 8.29947Z" fill="#131313"/>
<path d="M190.814 177.496C187.385 179.003 183.956 178.432 180.813 177.873L181.001 176.828C181.038 176.628 181.632 177.126 181.832 177.302L190.814 177.496Z" fill="#131313"/>
<path d="M307.019 103.401C307.019 103.602 306.466 104.106 306.016 104.325L306.071 94.7446C306.976 95.5161 307.025 96.318 307.025 97.2475L307.012 103.401H307.019Z" fill="#131313"/>
<path d="M8.72851 104.064C8.72851 104.264 8.17579 104.769 7.72632 104.987L7.78098 95.4072C8.68599 96.1787 8.73458 96.9806 8.73458 97.9101L8.72243 104.064H8.72851Z" fill="#131313"/>
<path d="M94.9217 178.353C91.0076 178.985 87.1238 179.301 83.0459 178.207C87.0874 177.8 90.8134 177.812 94.9217 178.353Z" fill="#131313"/>
<path d="M306.028 87.425L306.01 80.688C306.01 79.9833 306.459 79.1389 306.969 78.665L307.048 87.3278L306.793 87.9413C306.726 88.1114 306.028 87.6194 306.028 87.425Z" fill="#131313"/>
<path d="M7.74454 88.099L7.72632 81.3559C7.72632 80.6452 8.17578 79.8008 8.68599 79.333L8.76495 87.9958L8.50985 88.6093C8.44303 88.7733 7.75061 88.2874 7.74454 88.099Z" fill="#131313"/>
<path d="M93.9334 9.15634C90.0193 9.78812 86.1356 10.104 82.0576 9.01055C86.0991 8.60353 89.8251 8.61567 93.9334 9.15634Z" fill="#131313"/>
<path d="M118.49 10.8757L113.029 10.7907C112.804 10.7907 112.216 10.5659 112.052 10.4505C111.888 10.335 111.918 9.7883 111.943 9.57568C115.487 10.2014 118.8 10.1467 122.623 9.87943C121.47 10.7481 120.026 10.8939 118.49 10.8696V10.8757Z" fill="#131313"/>
<path d="M75.8604 178.42L66.946 178.851L66.1936 178.888C65.9812 178.9 66.1632 178.08 66.3756 178.074L75.108 177.685C75.2354 177.685 75.7876 177.819 75.8908 177.855C76.0425 177.91 75.9757 178.396 75.8604 178.414V178.42Z" fill="#131313"/>
<path d="M74.8719 9.22331L65.9575 9.6607L65.205 9.69715C64.9987 9.7093 65.1747 8.90742 65.3871 8.88312C68.3242 8.53685 73.6036 8.22096 74.9023 8.6705C75.06 8.72517 74.9872 9.20509 74.8719 9.22939V9.22331Z" fill="#131313"/>
<path d="M119.486 180.072L114.048 179.994C113.8 179.994 113.211 179.763 113.053 179.647C112.895 179.532 112.914 179.009 112.932 178.772C116.506 179.404 119.777 179.35 123.624 179.082C122.465 179.951 121.021 180.097 119.492 180.072H119.486Z" fill="#131313"/>
<path d="M238.717 178.165L237.68 177.74C237.51 177.667 237.759 177.132 237.953 177.126L242.073 176.956C243.839 176.883 245.32 176.166 247.146 177.223L238.717 178.165Z" fill="#131313"/>
<path d="M237.729 8.968L236.691 8.54276C236.522 8.46987 236.764 7.93528 236.977 7.92921L241.091 7.7591C242.857 7.68621 244.338 6.96937 246.164 8.0264L237.735 8.968H237.729Z" fill="#131313"/>
<path d="M106.342 179.088L99.5937 179.027C99.4359 179.027 98.8837 178.517 98.7805 178.396C98.6774 178.274 98.8352 177.843 98.9929 177.861L99.7636 177.964L106.445 178.207L107.106 178.153C107.222 178.14 107.428 178.432 107.349 178.511C107.228 178.632 106.554 179.082 106.342 179.082V179.088Z" fill="#131313"/>
<path d="M105.305 9.89127L98.5996 9.83051C98.4418 9.83051 97.8957 9.3263 97.7925 9.19873C97.6893 9.07116 97.8471 8.64592 98.0049 8.66414L98.7756 8.76741L105.451 9.01041L106.112 8.95573C106.228 8.94966 106.44 9.23518 106.355 9.31416C106.234 9.43565 105.56 9.88518 105.305 9.88518V9.89127Z" fill="#131313"/>
<path d="M231.915 8.69487C229.148 9.40563 225.737 10.1832 222.558 8.65234L231.915 8.69487Z" fill="#131313"/>
<path d="M232.904 177.897C230.137 178.608 226.726 179.386 223.547 177.855L232.904 177.897Z" fill="#131313"/>
<path d="M161.74 9.39939C158.985 11.0639 152.37 11.3251 152.71 9.29004C154.67 9.81248 156.503 9.95828 158.56 9.55126L161.74 9.39939Z" fill="#131313"/>
<path d="M162.729 178.596C159.974 180.261 153.359 180.522 153.699 178.487C155.659 179.009 157.492 179.155 159.549 178.748L162.729 178.596Z" fill="#131313"/>
<path d="M134.524 9.16211C131.648 10.7173 125.1 10.2738 125.701 9.5995C125.84 9.44763 126.229 9.20463 126.447 9.20463L134.524 9.16211Z" fill="#131313"/>
<path d="M135.518 178.359C132.648 179.908 126.1 179.471 126.695 178.797C126.828 178.639 127.223 178.402 127.447 178.402L135.512 178.359H135.518Z" fill="#131313"/>
<path d="M7.74433 72.3529L7.73218 67.1346C7.73218 66.3995 8.18772 65.5065 8.69792 65.1846L8.72222 72.4501C8.72222 72.5594 8.2606 73.0333 8.23024 73.1426C8.19987 73.252 7.74433 72.4744 7.74433 72.3529Z" fill="#131313"/>
<path d="M306.029 71.6913L306.016 66.4669C306.016 65.7501 306.472 64.8449 306.982 64.5229L307.006 71.7885C307.006 71.8978 306.569 72.3777 306.514 72.4749C306.46 72.5721 306.029 71.831 306.029 71.6913Z" fill="#131313"/>
<path d="M173.623 9.83071L168.769 9.86109C168.556 9.86109 167.901 9.75781 167.901 9.56341C167.901 9.30827 167.907 8.72509 167.907 8.79191L175.456 8.96808C175.256 9.23537 174.163 9.82463 173.623 9.83071Z" fill="#131313"/>
<path d="M174.612 179.027L169.757 179.058C169.545 179.058 168.89 178.955 168.89 178.76C168.89 178.505 168.896 177.922 168.896 177.989L176.445 178.165C176.244 178.432 175.152 179.021 174.612 179.027Z" fill="#131313"/>
<path d="M217.648 10.4444C214.887 11.1126 210.208 11.2463 209.067 9.97664C208.982 9.88552 209.201 9.05326 209.274 9.15046L209.699 9.73364L217.654 10.4444H217.648Z" fill="#131313"/>
<path d="M218.636 179.647C215.875 180.315 211.196 180.449 210.055 179.179C209.97 179.088 210.189 178.256 210.262 178.353L210.686 178.936L218.642 179.647H218.636Z" fill="#131313"/>
<path d="M146.721 178.523L142.303 178.347C141.108 178.298 139.712 178.845 138.783 177.515L143.347 177.739C144.469 177.794 145.726 177.314 146.727 178.517L146.721 178.523Z" fill="#131313"/>
<path d="M145.726 9.32629L141.308 9.15012C140.113 9.10152 138.717 9.64826 137.789 8.31787L142.352 8.54264C143.475 8.59731 144.731 8.1174 145.732 9.32022L145.726 9.32629Z" fill="#131313"/>
<path d="M97.7743 127.015C94.1272 128.126 93.6782 125.599 89.2483 128.169C87.3124 129.293 85.3524 129.445 83.3802 128.412C80.613 126.966 79.9576 129.688 76.8142 131.638C76.3409 131.929 74.8905 131.522 74.6781 131.042L73.6708 128.734L73.1125 129.852C72.979 130.113 71.9716 129.906 71.9292 129.603C71.7957 128.722 72.9365 127.009 73.8892 126.93C75.2061 126.82 75.5459 128.394 76.1406 129.73L79.0898 126.978C80.437 125.721 82.2029 125.453 83.8717 126.328C87.6887 128.327 90.0736 123.929 93.5871 124.84C94.904 125.18 96.0266 125.381 97.2585 125.016C101.027 123.892 102.046 127.962 105.287 126.085C107.289 124.925 109.322 125.052 111.549 124.943C113.467 124.852 115.251 124.579 116.507 126.571L120.148 125.387C121.077 125.083 122.667 124.974 123.45 124.506C125.385 123.352 127.06 124.238 128.523 125.466C131.223 124.33 134.233 123.661 137 125.052C138.141 124.706 139.883 124.147 140.848 124.494C145.271 126.073 146.97 124.767 148.354 125.915C146.546 128.053 143.718 129.22 141.4 127.956C140.156 127.282 139.464 126.814 137.916 127.391C135.884 128.151 133.814 125.484 130.653 127.27C128.929 128.242 127.06 127.877 125.737 126.201L122.327 127.167L118.722 128.205C116.841 128.746 115.233 128.819 114.08 127.045H111.234C109.413 127.039 107.805 127.106 106.234 127.962C101.737 130.404 100.141 126.286 97.7622 127.015H97.7743Z" fill="#131313"/>
<path d="M122.86 116.785C121.204 117.659 120.014 116.991 118.576 115.928C117.678 115.26 115.924 116.195 114.814 116.384C111.057 117.015 107.416 116.432 103.727 115.636C102.192 115.308 100.565 115.418 99.0361 115.788C95.7956 116.572 92.7432 116.712 89.3935 116.499C84.3992 116.183 80.9402 121.979 76.7591 116.596C74.6352 117.009 73.0635 120.332 71.5221 119.196C70.5451 118.473 70.3874 116.779 71.5039 115.728L72.044 118.139L75.0054 115.315C76.1584 114.215 77.7543 114.409 78.7617 115.533C81.3104 118.37 83.6649 113.522 90.7406 114.075C96.4752 114.525 99.4062 112.471 104.194 113.267L109.923 114.221C115.044 115.078 118.012 111.846 120.925 114.926C123.649 114.555 125.464 111.67 127.879 114.482C129.263 116.092 132.982 112.787 137.327 114.185C138.669 114.616 139.761 114.822 141.059 114.215C143.238 113.188 145.908 113.188 147.929 114.731L140.568 116.663C139.142 117.04 137.74 116.554 136.272 116.135C132.376 115.023 128.716 119.767 125.561 115.357L122.86 116.785Z" fill="#131313"/>
<path d="M123.139 101.822C119.055 102.636 117.957 100.127 114.965 100.637C113.278 100.923 111.901 100.886 110.171 100.619C106.858 100.109 104.552 103.693 101.214 101.281C100.055 100.449 98.5927 100.23 97.2455 99.5983L94.0111 98.0796C89.5509 99.4708 86.5652 104.537 82.9849 100.983C82.372 100.376 81.1826 100.352 80.5272 100.868L77.4991 103.231C76.4553 104.045 74.8472 104.337 73.7913 103.231C73.0813 102.484 72.256 101.232 71.7827 100.315C71.9769 100.048 72.8447 99.5984 73.0328 99.7927L73.8338 100.625C74.3739 101.19 75.09 101.84 75.7211 102.253L79.8536 99.2825C83.0031 97.0165 84.4656 101.639 87.4209 99.8839L91.6202 97.3932C92.6033 96.81 94.4359 96.646 95.4008 97.1563C97.0089 98.0007 98.1619 98.3712 99.9824 98.6932C101.803 99.0152 102.719 100.904 104.934 99.896C109.928 97.6179 111.081 99.5133 115.02 98.7296C118.454 98.0432 120.081 100.479 122.344 99.8413C124.844 99.1367 126.635 99.8413 128.983 100.309C133.759 101.257 139.451 98.839 146.417 101.974C145.368 102.611 144.202 102.636 142.989 102.484C140.385 102.162 137.934 102.211 135.343 102.32L130.694 102.526C128.042 102.642 126.556 101.135 123.133 101.816L123.139 101.822Z" fill="#131313"/>
</svg>
