<svg width="209" height="133" viewBox="0 0 209 133" fill="none" xmlns="http://www.w3.org/2000/svg">
<g filter="url(#filter0_di_2668_3071)">
<g clip-path="url(#clip0_2668_3071)">
<mask id="mask0_2668_3071" style="mask-type:alpha" maskUnits="userSpaceOnUse" x="0" y="0" width="200" height="125">
<path d="M0 10C0 4.47715 4.47715 0 10 0H190C195.523 0 200 4.47715 200 10V115C200 120.523 195.523 125 190 125H10C4.47716 125 0 120.523 0 115V10Z" fill="#D9D9D9"/>
</mask>
<g mask="url(#mask0_2668_3071)">
<path d="M164.91 0.235107H200V125.765H112.093L164.91 0.235107Z" fill="#007D19"/>
<path d="M90.9444 0.209351H164.884L112.093 125.791H40L90.9444 0.209351Z" fill="#00A71F"/>
<path d="M0 0.235107H91.1628L40.155 125.765H0V0.235107Z" fill="#00D125"/>
</g>
<rect x="13.25" y="56.25" width="18.5" height="14.5" rx="1.75" fill="#FFD78E" stroke="#38362E" stroke-width="0.5"/>
<path d="M19.7405 70.5994L19.7405 56.0463" stroke="#38362E" stroke-width="0.5"/>
<path d="M13 64.708L19.9905 64.708" stroke="#38362E" stroke-width="0.5"/>
<path d="M13.2866 61.1844L19.9904 61.1844" stroke="#38362E" stroke-width="0.5"/>
<path d="M25.6287 64.708L31.7574 64.708" stroke="#38362E" stroke-width="0.5"/>
<line x1="19.9905" y1="67.4248" x2="25.6286" y2="67.4248" stroke="#38362E" stroke-width="0.5"/>
<line x1="19.9905" y1="58.6155" x2="25.6286" y2="58.6155" stroke="#38362E" stroke-width="0.5"/>
<path d="M25.6287 61.1844L32.0001 61.1844" stroke="#38362E" stroke-width="0.5"/>
<path d="M25.5 71L25.3786 56.0526" stroke="#38362E" stroke-width="0.5"/>
<path d="M47.8281 72.2391C48.2899 72.4778 48.8599 72.2978 49.0776 71.8257C50.3254 69.1197 50.9822 66.1748 50.9996 63.1878C51.0169 60.2009 50.3945 57.2485 49.1783 54.5282C48.9661 54.0536 48.3982 53.8669 47.9336 54.1002C47.469 54.3336 47.2839 54.8985 47.4939 55.3741C48.578 57.8281 49.1326 60.487 49.1169 63.1769C49.1013 65.8667 48.5158 68.519 47.4033 70.9603C47.1877 71.4333 47.3663 72.0004 47.8281 72.2391Z" fill="#FDFAF0"/>
<path d="M44.6318 70.587C45.0995 70.8288 45.6772 70.6465 45.8929 70.1663C46.8801 67.9677 47.3995 65.584 47.4135 63.167C47.4276 60.75 46.936 58.3604 45.9744 56.1505C45.7644 55.6677 45.1888 55.4788 44.7183 55.715C44.2478 55.9513 44.0609 56.5233 44.2677 57.0075C45.0961 58.9473 45.5193 61.0398 45.507 63.1559C45.4947 65.2719 45.0472 67.3594 44.1962 69.2894C43.9838 69.7712 44.1641 70.3453 44.6318 70.587Z" fill="#FDFAF0"/>
<path d="M41.4381 68.9363C41.9102 69.1803 42.4941 68.9965 42.7045 68.5085C43.4336 66.8175 43.8168 64.9941 43.8275 63.1461C43.8383 61.2981 43.4763 59.4703 42.767 57.771C42.5623 57.2805 41.9806 57.09 41.5057 57.3285C41.0307 57.567 40.8431 58.1442 41.0422 58.6369C41.6184 60.0629 41.912 61.5907 41.903 63.1349C41.894 64.6791 41.5827 66.2034 40.9899 67.6226C40.7851 68.113 40.966 68.6923 41.4381 68.9363Z" fill="#FDFAF0"/>
<path d="M38.2949 67.3116C38.7435 67.5435 39.2994 67.3691 39.49 66.9014C39.9778 65.7047 40.234 64.4231 40.2415 63.1252C40.2491 61.8274 40.0079 60.5429 39.534 59.3406C39.3489 58.8708 38.7951 58.6898 38.3437 58.9165C37.8924 59.1431 37.7155 59.6915 37.8913 60.1649C38.241 61.1062 38.4185 62.1055 38.4126 63.1146C38.4068 64.1237 38.2176 65.1208 37.8571 66.058C37.6757 66.5294 37.8462 67.0797 38.2949 67.3116Z" fill="#FDFAF0"/>
<path d="M165 104.467H183.012M165 104.467C165 109.441 169.032 113.473 174.006 113.473M165 104.467C165 99.4931 169.032 95.4611 174.006 95.4611M183.012 104.467C183.012 109.441 178.98 113.473 174.006 113.473M183.012 104.467C183.012 99.4931 178.98 95.4611 174.006 95.4611M174.006 113.473C166.757 105.548 170.985 98.1628 174.006 95.4611M174.006 113.473C181.255 105.548 177.026 98.1628 174.006 95.4611" stroke="#FDFAF0" stroke-width="2" stroke-linecap="round" stroke-linejoin="round"/>
</g>
<path d="M10 0.5H190C195.247 0.5 199.5 4.75329 199.5 10V115C199.5 120.247 195.247 124.5 190 124.5H10C4.7533 124.5 0.5 120.247 0.5 115V10L0.512695 9.51074C0.767337 4.49142 4.91739 0.5 10 0.5Z" stroke="#FDFAF0" stroke-opacity="0.5" shape-rendering="crispEdges"/>
</g>
<defs>
<filter id="filter0_di_2668_3071" x="0" y="0" width="209" height="133" filterUnits="userSpaceOnUse" color-interpolation-filters="sRGB">
<feFlood flood-opacity="0" result="BackgroundImageFix"/>
<feColorMatrix in="SourceAlpha" type="matrix" values="0 0 0 0 0 0 0 0 0 0 0 0 0 0 0 0 0 0 127 0" result="hardAlpha"/>
<feOffset dx="5" dy="4"/>
<feGaussianBlur stdDeviation="2"/>
<feComposite in2="hardAlpha" operator="out"/>
<feColorMatrix type="matrix" values="0 0 0 0 0.0745098 0 0 0 0 0.0745098 0 0 0 0 0.0745098 0 0 0 0.25 0"/>
<feBlend mode="normal" in2="BackgroundImageFix" result="effect1_dropShadow_2668_3071"/>
<feBlend mode="normal" in="SourceGraphic" in2="effect1_dropShadow_2668_3071" result="shape"/>
<feColorMatrix in="SourceAlpha" type="matrix" values="0 0 0 0 0 0 0 0 0 0 0 0 0 0 0 0 0 0 127 0" result="hardAlpha"/>
<feOffset dx="5" dy="4"/>
<feGaussianBlur stdDeviation="2"/>
<feComposite in2="hardAlpha" operator="arithmetic" k2="-1" k3="1"/>
<feColorMatrix type="matrix" values="0 0 0 0 0.992157 0 0 0 0 0.980392 0 0 0 0 0.941176 0 0 0 0.25 0"/>
<feBlend mode="normal" in2="shape" result="effect2_innerShadow_2668_3071"/>
</filter>
<clipPath id="clip0_2668_3071">
<path d="M0 10C0 4.47715 4.47715 0 10 0H190C195.523 0 200 4.47715 200 10V115C200 120.523 195.523 125 190 125H10C4.47716 125 0 120.523 0 115V10Z" fill="white"/>
</clipPath>
</defs>
</svg>
