<svg width="713" height="814" viewBox="0 0 713 814" fill="none" xmlns="http://www.w3.org/2000/svg">
<path d="M340.07 811C337.864 809.417 336.065 806.883 334.501 804.937C332.627 800.071 332.274 794.864 332.766 789.774L333.291 784.353L333.216 765.844L332.617 760.273L332.338 703.397L331.995 686.567L331.685 682.728L330.571 671.169L330.1 664.903L329.693 657.247L329.361 644.266L328.997 624.623L328.59 617.683L328.301 612.144L327.991 607.386L327.648 536.278L327.273 501.398L326.834 489.475L326.491 482.45L326.052 473.511L325.57 466.785C325.421 464.625 323.108 462.968 321.448 461.642L239.518 461.449L74.3845 461.011L45.5576 460.68L39.2718 460.209L28.8633 459.289C24.3979 458.894 20.3715 458.242 16.1739 456.573C13.9894 455.707 11.0231 455.761 9.17059 454.21C5.32629 450.992 1.37491 446.875 0.518237 442.053C-0.28489 437.519 -0.41339 432.728 2.04953 428.761C7.96055 419.255 12.9399 417.266 23.6269 416.807L31.1013 416.486L35.3525 416.112L47.2923 414.529L51.9398 414.144L60.0353 413.759L69.8227 413.289L75.5303 412.85L220.393 412.54L321.78 412.326C322.615 411.973 324.039 411.139 324.264 410.487C324.5 409.685 324.874 408.028 324.874 407.183L325.121 365.363L325.56 303.28L325.967 268.026L326.384 233.937L326.877 137.124L327.273 84.3651L327.669 37.5731L328.087 21.352C328.173 17.9837 328.869 13.9846 330.668 11.2793L333.452 7.08767L337.05 3.62318C338.688 2.04063 340.102 1.13174 342.318 0.639864C347.362 -0.482888 355.233 -0.247644 357.824 2.30795L363.628 8.02864C365.116 9.49357 365.909 11.3862 366.305 13.4606L368.018 22.432L369.871 35.4024L370.256 46.5444L370.653 60.103L371.274 67.4276L371.509 174.966L371.718 279.9L371.927 384.835L372.227 406.852L372.794 410.861C374.186 411.343 375.771 412.305 377.399 412.305L597.145 412.572L643.566 412.925L652.1 413.47L666.171 413.823L673.646 414.198L678.711 414.55L695.469 417.352C697.44 417.683 700.106 418.015 701.637 419.17L705.803 422.313C707.495 423.586 708.533 425.222 709.647 426.976C711.66 430.119 713.149 433.113 712.988 436.952L712.86 439.989C712.763 442.384 711.65 444.266 710.697 446.276C709.583 448.639 708.598 450.372 706.295 451.922L702.869 455.055L695.823 458.338C691.314 460.434 686.121 460.583 681.067 460.637L641.06 461.032L590.41 461.471L539.352 461.899L509.508 462.305L480.039 462.743L400.101 462.765L377.313 462.54L373.362 464.219C371.723 464.914 371.745 467.566 371.745 469.405L371.584 557.493L371.102 569.918L370.653 577.136L370.256 594.597L369.892 610.882L369.635 616.036L369.303 623.243L368.864 629.221L368.436 634.321L368.029 639.432L367.601 646.661L367.29 686.898L366.948 741.742L366.241 747.591L366.187 799.248C366.187 800.681 365.288 803.087 364.892 804.317L359.848 810.401C357.31 812.614 353.401 813.79 349.932 813.983C346.741 814.154 342.886 813.031 340.123 811.053L340.07 811Z" fill="#131313"/>
</svg>
