<svg width="100%" height="100%" viewBox="0 0 193 247" fill="none" xmlns="http://www.w3.org/2000/svg">
<path d="M49.911 243.076C45.8287 241.957 42.3309 240.173 38.6779 238.114C33.7646 235.339 29.4905 232.021 26.3124 227.297L22.2164 221.213C21.9196 220.77 21.5726 219.707 21.5635 219.132L21.4539 211.072L21.5954 207.977L21.6776 203.303L21.6137 200.948L21.4995 193.29L21.6228 180.925L21.842 176.653L21.9562 173.919L22.3899 166.817L22.6457 160.359L22.8511 153.517L22.9516 150.628L23.1342 134.462L23.3945 128.273L23.6594 123.909L24.1297 118.916L24.5909 114.443L25.1069 108.994L25.3032 106.712L25.6137 102.503L26.1023 97.5924L26.6594 91.9739L27.1709 88.2906L27.6412 85.2691L28.148 82.0194C28.6001 79.1029 27.4403 77.6378 29.3992 75.3009L31.3308 73.0006C32.9929 71.5857 34.9472 70.7459 36.8971 69.8148C46.9703 64.9996 61.6464 61.5354 72.642 62.8316L77.3361 63.3838C85.8934 64.3925 93.9118 66.6792 102.2 68.8654L110.255 70.9923L117.857 73.1329C116.647 71.4989 115.118 70.4355 113.766 69.0662L107.962 63.1967L104.834 59.8192C100.378 55.004 96.5146 49.8876 92.9346 44.3695C89.9117 39.714 87.3729 35.0175 85.6377 29.7641C84.9664 27.733 84.423 25.7887 84.4276 23.6892V21.6125C84.4367 16.3317 88.4596 12.6986 93.6926 12.265C97.4781 11.9501 101.264 12.265 104.962 13.4106L108.93 14.643L113.456 16.3728C117.912 18.0752 121.885 20.3528 126.068 22.6942C135.415 27.9247 148.251 37.2859 156.009 44.5247L160.023 48.2673L169.091 57.3317C173.822 62.0602 177.753 67.2269 181.63 72.6765C186.982 80.2028 195.443 94.7443 190.941 103.056C189.229 106.214 185.795 107.624 182.32 107.88C174.831 108.432 166.648 105.342 159.776 102.225C159.411 103.22 158.981 104.019 158.447 104.918L157.726 106.958L154.365 116.169L153.045 121.422L150.274 131.048L148.694 136.671L146.602 143.846L140.835 167.908L138.552 176.626L137.62 179.866L134.474 189.656L131.168 199.273L129.556 203.86L127.803 209.086L126.469 213.025L122.931 222.477L120.579 228.571L119.752 231.729L119.127 234.258C118.606 236.357 117.848 238.32 116.926 240.255C116.437 241.273 116.045 241.327 114.94 241.62L106.949 243.747L97.2361 245.476L89.7793 246.522L86.4596 246.914H77.6878L73.0712 246.695L70.3543 246.467L64.9295 245.878L61.6098 245.508C57.5961 245.061 53.7786 244.121 49.9201 243.062L49.911 243.076ZM187.534 103.736C189.443 102.161 190.256 99.6599 190.11 97.2592C189.845 93.0145 188.681 89.0117 186.667 85.333L183.571 79.6688C179.658 73.1055 175.146 67.0763 169.968 61.4715L166.593 57.8155L158.529 49.7689L155.123 46.6242C145.082 37.756 134.355 29.7915 122.675 23.1689L118.049 20.7407L110.985 17.596L106.757 16.0807C103.318 14.8484 97.2452 13.5521 93.9209 14.0861C91.8022 14.4285 89.7245 15.0127 88.2085 16.6466C86.9664 17.9794 86.213 20.3984 86.35 22.11L86.5692 24.885C86.8249 28.1301 88.1674 31.1151 89.5555 34.0499C94.2314 43.9359 103.798 56.104 111.529 63.8129L118.415 70.682C121.689 73.9499 124.94 77.0307 128.698 79.7966L138.027 86.6566C148.214 94.1464 168.667 106.228 180.936 105.776C183.228 105.689 185.649 105.301 187.539 103.74L187.534 103.736ZM122.209 109.336L129.186 109.322L135.059 109.117L139.721 108.542C145.831 107.789 151.579 106.251 157.306 104.069C157.799 103.202 157.899 102.042 157.634 101.203C146.963 95.8899 138.634 90.0295 129.515 82.7131L123.816 78.1398L120.506 76.5424C116.346 74.5341 111.93 73.5391 107.497 72.3296L102.569 70.9878L98.6744 69.9289L95.6333 68.9887C91.1583 67.8659 86.8112 66.7431 82.2312 66.0402L78.9937 65.5427L75.5553 65.0452L70.7561 64.5431L62.3633 64.5112L57.7422 65.0817L54.8061 65.6385C47.8653 66.953 41.267 69.0982 34.9975 72.4164C32.591 73.6898 30.8878 75.6432 29.5362 78.2037L38.2076 83.8359C42.4679 86.6018 46.7329 89.0117 51.3585 91.1067L61.1212 95.5294L70.5826 99.2127L74.4822 100.536L78.6604 101.883L83.4915 103.27L87.0076 104.21L92.2679 105.456L100.766 107.191L107.273 108.136L111.172 108.61L116.739 109.071L122.209 109.336ZM24.4767 214.942L24.8968 208.684L25.0886 203.025L25.3032 200.743L25.5909 195.27L26.1206 186.608L26.3124 183.846L26.5042 180.61L26.6823 177.621L26.9517 173.403L27.1663 170.409L27.7142 161.966L27.9334 158.962L28.1617 155.735L28.4631 151.258L28.6503 148.99L29.1846 140.309L29.3581 137.159L30.0065 128.108L30.3307 122.892L30.8513 114.434L31.3581 106.566L31.8604 99.6599L32.3627 92.6539L32.8422 85.8077L33.0248 83.1148L29.4266 80.5908L29.1298 83.0372L28.6229 86.5197L28.2074 89.8196L27.6275 95.4335L26.664 106.88L26.1434 114.329L25.6092 119.733L25.1252 124.425L24.9014 130.509L24.6731 138.008L24.6457 140.331L24.6366 142.518L24.6183 145.069L24.6092 146.269L24.5772 148.287L24.4448 157.205L24.4128 159.474L24.2256 162.207L24.0338 166.178L23.6457 171.934L23.4174 178.515L23.1069 186.393L23.148 199.679V207.051L23.0703 218.155C23.0658 219.104 23.4174 220.054 23.7872 221.14C24.1982 220.159 24.2895 219.383 24.3352 218.406L24.4859 214.937L24.4767 214.942ZM25.6959 223.956L28.0795 226.932L28.4083 224.162L28.8239 218.904L29.0659 215.96L29.2987 212.692L29.4083 210.547L29.8467 205.987L30.3536 199.063L31.1207 189.999L31.3673 185.444L32.1709 176.384L32.4404 172.924L32.8422 168.31L33.2258 163.422L33.5271 159.706L33.9701 154.22L35.3628 138.022L35.5957 134.402L36.034 130.349L36.5957 122.727L37.0888 116.57L37.5546 110.454L38.0249 105.237L38.2898 101.728L39.477 89.3494C39.6186 87.8752 39.8423 87.2043 38.3583 86.3234L34.1345 83.804L33.8285 90.6639L33.3399 100.29L33.1755 103.257L32.9792 106.976L32.8102 109.952L32.5363 114.681L32.3171 117.661L32.0385 122.892L31.8376 125.411L31.349 134.343L30.8422 143.545L30.3125 152.235L30.0887 157.543L29.6138 166.105L29.3627 169.282L29.1572 174.12L28.9654 176.393L28.6549 181.861L28.4631 184.604L28.1617 189.816L27.9882 192.801L27.6138 198.379L27.1206 206.119L26.7508 212.203L26.5727 214.969L26.3352 218.397C26.2028 220.328 26.2119 221.985 25.6959 223.956ZM31.0065 215.312L30.2348 223.879L29.7462 228.936C30.9563 230.296 32.2942 231.606 33.9701 232.774L35.0568 221.377L35.6002 215.225L36.0523 210.962L36.582 204.239L37.0569 199.269L37.5592 194.111L38.1163 187.205L40.025 166.05L40.3446 162.468L40.8104 157.725L41.3127 152.002L41.8469 145.804L42.2899 141.317L42.7602 136.598L42.8561 134.795L44.1118 121.659L44.3401 118.884L44.8652 113.216L45.6735 104.484L47.1256 91.1477L41.9245 88.3134C41.7556 88.2221 41.2396 87.9802 41.1574 88.1536C41.098 88.2814 40.993 88.6648 40.9839 88.8291L40.7738 93.0282L40.3263 98.099L40.098 102.44L39.3309 111.075L39.0706 115.822L38.5364 121.23L38.0752 127.278L37.3309 135.913L37.0706 139.355L36.687 144.558L36.3719 148.51L36.2486 150.669L35.8696 155.01L35.3263 162.134L34.5956 170.528L34.308 175.151L33.8468 180.336L33.5454 183.924L33.3308 187.233L32.5043 196.521L32.3125 199.054L31.8102 205.248L31.3216 210.729L30.9974 215.321L31.0065 215.312ZM42.2807 219.547L42.8058 213.719L43.2899 209.784L44.1849 200.51L45.4269 188.575L46.6096 176.557L48.4817 157.986L49.0571 151.331L50.3905 138.077L51.7512 123.882L52.3083 117.944L52.7558 113.439L53.2581 108.282L54.3129 97.6608L54.6097 94.653L48.3265 91.8597L47.7968 100.139L47.4452 104.293L42.8698 155.334L42.3218 161.317L42.0387 165.567L41.6323 169.15L41.2259 173.65L39.7327 190.049L38.2213 206.708L37.4633 215.198L36.1208 229.954L35.7646 234.212L40.6597 236.982L41.3401 229.935L41.9063 224.102L42.2899 219.538L42.2807 219.547ZM48.4041 239.173L49.427 228.119L50.8973 213.956L51.7375 205.973L52.2809 201.035L52.806 195.562L53.2809 190.834L53.7512 186.653L54.1713 182.322L54.7513 176.156L55.2399 171.947L56.7696 155.882L57.3266 151.258L58.4454 139.802L58.9705 135.11L59.4774 130.14L60.0116 124.708L61.5322 111.166L62.0345 106.196L62.5322 102.691L62.6099 98.1264L56.0892 95.4518L55.8106 98.5098L55.459 101.732L55.1805 104.977L54.7421 109.715L54.2033 115.151L53.564 121.171L53.0115 127.533L52.564 132.098L52.0389 137.018L50.1576 156.954L49.0206 168.209L48.5457 173.96L47.9521 179.866L45.9155 201.971L45.3675 207.744L44.8241 213.372L44.2579 219.762L43.267 228.908L42.8013 233.372L42.4268 238.078L47.3584 240.364C47.5685 240.465 48.29 240.291 48.3128 240.081L48.395 239.173H48.4041ZM56.5367 228.087L56.9431 224.645L57.8883 216.686L58.3632 212.464L58.7148 209.438L59.5824 201.683L61.3496 186.347L61.5961 183.595L62.0528 179.866L63.1898 170.14L63.7514 164.722L64.2309 159.985L64.6966 156.265L65.1624 152.258L65.7286 147.095L66.0254 144.403L66.4181 140.829L68.2401 125.571L68.7104 121.376L69.2675 115.931L70.6237 105.548L71.2949 101.454L69.2218 100.614L64.5551 99.094L64.0117 103.215L63.6099 107.985L62.5505 118.916L62.0162 124.065L61.5048 129.514L60.4957 139.387L59.9203 145.037L58.3952 159.2L57.9522 163.956L57.5641 167.484L57.0024 172.659L55.8791 183.33L54.2809 198.593L53.7056 204.476L52.8654 211.898L52.4179 217.192L51.596 224.645L51.0708 229.337L50.5731 234.016L49.8699 241.086L52.9978 242.03C53.6554 242.231 54.3631 242.3 55.0207 242.19L56.1851 231.355L56.5458 228.096L56.5367 228.087ZM62.2993 231.359L62.6418 228.612L63.8017 219.314L64.1852 216.704L64.7606 212.569L65.6419 206.22L67.2949 194.243L67.7698 190.779L68.231 187.543L68.7195 184.038L69.2127 180.797L69.6785 177.575L70.2401 172.618L70.6968 169.364L71.2036 165.886L73.1215 152.02L74.3407 143.554L74.706 140.623L75.2128 137.132L75.5781 134.585L77.0713 123.909L77.5234 119.902L79.4366 107.031L79.907 104.147L77.1489 103.197L72.263 101.668L71.6922 108.149L71.0027 114.845L70.4136 120.162L69.9342 124.895L69.4365 129.592L68.6008 136.853L67.7698 144.558L67.272 148.958L66.6556 154.348L65.4683 164.49L65.2126 166.744L64.7377 170.939L64.1715 176.128L63.0802 185.348L62.4318 191.692L60.9569 204.312L60.4591 208.972L59.9249 214.189L58.3175 228.63L57.7194 234.545L57.2719 238.032L56.8335 242.834L60.724 243.368L61.1806 240.319L61.8838 234.586L62.2993 231.364V231.359ZM68.1762 219.607L70.8474 203.746L73.126 190.825L74.5644 182.591L75.6923 176.475L76.1443 173.915L76.6649 170.706L77.1033 168.168L78.6467 159.569L79.2403 155.69L79.6741 153.184L80.2357 149.98L80.6056 147.853L82.0851 138.839L83.4824 130.81L85.4322 119.624L85.9436 116.648L86.382 114.124L86.9619 111.198L87.9939 106.346L84.2495 105.237L81.1444 104.375L80.6102 108.56L80.1946 111.627L79.7243 115.142L77.8613 128.843L76.2676 140.477L75.4137 147.47L74.9434 150.683L74.4411 154.143L73.2858 162.198L70.9159 179.131L70.4136 182.856L69.9981 185.877L69.3634 190.551L68.6876 195.95L68.2081 199.679L67.8154 202.482L66.5551 211.432L65.0483 222.372L64.6008 225.371L63.5596 231.829L62.9569 236.006L62.5505 239.023L62.0117 243.591C62.8793 243.705 63.482 243.737 64.2126 243.669L66.9661 227.046L68.167 219.584L68.1762 219.607ZM117.054 234.591L119.218 226.676L122.378 218.895L129.127 199.752L130.958 194.85L132.483 190.127L134.287 184.754L135.89 179.602L136.835 176.384L138.771 169.127L140.429 162.29L143.378 149.802L144.305 146.009L148.082 132.869L151.78 120.167L152.57 117.259L154.219 112.166L155.534 108.943L156.895 105.434L151.972 107.373L150.616 112.284L144.246 134.037L142.858 138.606L139.346 150.491L137.771 155.621L137.433 156.872L134.675 166.064L133.648 169.501L132.319 173.892L129.232 184.234L128.666 186.096L127.182 191.085L124.246 200.957L122.488 206.877L116.99 225.216L113.191 237.85L112.414 240.392L115.09 239.447C115.917 237.95 116.565 236.394 117.054 234.6V234.591ZM67.9433 243.053L69.4456 235.107L70.5324 229.785L72.2995 221.145L74.8612 209.054L75.9663 203.719L76.4046 201.592L78.8978 189.602L79.8019 185.32L81.8385 175.64L83.0075 169.843L84.5372 162.732L85.4778 157.958L88.5144 143.54L92.2907 125.662L93.1858 121.623L95.3684 111.563C95.6424 110.308 95.7703 109.126 95.6835 107.885L89.6788 106.648L89.2633 109.487L86.0852 128.382L85.6514 130.906L85.2176 133.312L81.0303 157.128L80.4138 160.77L79.9618 163.307L79.3407 166.438L78.1352 173.513L75.0347 192.281L73.1123 203.509L71.3543 213.203L70.9433 215.494L70.4365 218.233L69.2264 225.043L67.4273 235.613L67.0437 237.973L66.1031 242.802C65.9432 243.632 66.1031 244.198 67.0346 244.235C67.5871 244.258 67.8017 243.838 67.9524 243.053H67.9433ZM106.442 242.04C107.871 241.766 109.09 241.423 110.25 240.921L116.679 219.178L117.643 215.937L120.465 206.498L122.2 200.752L129.954 174.946L137.25 150.473L138.981 144.686L148.589 113.001L150.187 107.894L144.913 109.254L143.725 113.918L142.346 118.939L140.543 125.361L133.182 150.532L131.922 154.823L122.15 188.52L120.501 194.385L111.821 223.774L107.693 237.553L106.433 242.044L106.442 242.04ZM81.56 227.525L84.4961 214.696L85.6331 209.721L86.7244 205.175L88.0943 199.282L89.4916 193.513L90.1172 190.619L90.9802 186.986L91.8935 183.184L94.9483 170.14L95.889 166.101L96.5511 163.266L98.7475 153.727L101.606 141.194L103.282 133.878L103.857 131.417L104.853 127.214L108.195 113.467L109.236 110.167L105.063 109.541L102.236 109.117L98.6653 108.496L97.7109 108.323C97.5374 108.291 97.3776 108.884 97.3456 109.076L95.7703 117.652L94.8251 122.166L92.1492 135.79L91.1264 140.696L87.6879 157.616L84.9299 171.08L84.0258 175.393L82.2267 184.312L81.3499 188.579L79.3179 198.493L77.9846 205.202L77.1307 208.981L76.7197 211.062L75.0804 219.415L72.0621 233.806L71.3315 237.325L69.7013 244.463C72.3543 244.764 75.0347 244.842 77.5919 244.741L78.6832 240.241L80.4412 232.395L81.5554 227.521L81.56 227.525ZM109.949 222.77L113.757 209.492L115.2 204.495L117.734 195.832L118.647 192.801L119.78 188.999L121.392 183.591L123.045 178L123.949 174.919L130.442 152.828L132.109 146.968L132.999 143.932L135.803 134.252L136.881 130.655L138.849 123.946L140.296 119.181L141.78 114.439L143.328 109.505L135.776 110.491L134.346 115.648L132.291 123.074L129.926 131.609L127.867 139.035L126.132 145.297L116.953 177.598L115.218 183.632L108.912 205.43L106.592 213.632L105.159 218.406L102.405 228.096L99.7018 237.512L98.1082 243.386L102.752 242.647C103.62 242.51 104.35 242.432 104.633 241.455L107.506 231.414L109.949 222.765V222.77ZM79.2174 245.079L86.2039 245.034L87.8888 239.392L96.6196 207.082L97.5146 204.006L99.9804 194.8L101.88 187.762L104.232 178.871L106.058 172.043L107.364 167.164L109.163 160.446L111.857 150.478L116.469 133.91L117.282 131.007L119.835 121.627L122.716 110.993L118.93 110.879L116.177 110.682L110.529 110.13L109.78 114.087L109.355 116.415L108.57 119.975L108.003 122.435L105.711 132.399L99.2132 159.647L98.1128 164.27L97.6333 166.306L95.7109 174.622L93.6424 183.591L92.5693 188.173L89.6149 200.83L88.6423 205.065L88.1172 207.361L82.5828 230.593L81.7381 234.066L81.1216 236.722L80.1399 240.698L79.222 245.088L79.2174 245.079ZM96.0305 243.778L99.5146 231.871L102.373 221.784L103.259 218.666L109.469 196.827L110.401 193.486L118.994 163.257L120.716 157.269L122.542 150.907L123.552 147.479L125.154 142.07L126.858 136.269L127.757 133.193L131.693 119.765L132.547 116.926L134.397 110.673L130.36 110.87L124.278 111.029L119.387 129.332L118.497 132.668L115.131 145.767L114.2 149.305L107.428 174.366L104.816 183.992L104.017 186.904L102.519 192.399L95.8844 217.274L94.3547 222.966L93.1766 227.37L90.6058 236.95L89.5601 240.638L88.6743 244.655L96.0305 243.783V243.778Z" fill="#131313"/>
<path d="M51.2761 59.9238C49.7921 61.8544 47.5865 62.393 45.3627 61.4938C42.9791 60.5308 40.5635 59.4582 38.4128 58.0205L32.2574 53.8991L28.3989 51.3386L25.0563 49.1934L19.0105 45.5239C14.7456 42.936 10.7912 40.129 6.98287 36.9159C3.81385 34.2413 1.14712 31.2015 0.183632 27.039C-0.464784 24.2366 0.699627 22.2512 2.17911 19.9874C3.6586 17.7236 4.97369 15.2224 6.80479 13.1777C8.04226 11.7947 9.03315 10.5168 10.1199 8.96038C10.782 8.0156 11.7455 7.1119 12.5629 6.21276C14.0926 4.52402 15.6726 2.84441 17.3712 1.4067C19.3941 -0.309425 22.0745 -0.31399 24.3257 0.635355C25.9285 1.31085 27.376 1.9544 28.7779 2.92656L31.7186 4.96674L33.883 6.58702L35.9424 8.26663C41.4448 11.6715 46.6413 15.3137 51.8195 19.2252C52.614 19.531 53.2031 19.9235 53.8743 20.3936L62.3814 26.3681C63.8517 27.3996 65.0161 28.8875 66.2536 30.1974C67.6372 31.6625 68.1075 33.8168 67.8107 35.8341C67.6326 37.03 66.7422 38.0021 66.0573 38.9925L57.4178 51.5075C56.1712 53.3149 54.8881 54.7526 53.7876 56.6558L51.2761 59.9238ZM64.6828 37.8104C66.45 35.0217 66.0847 32.2239 63.8335 30.0879C62.8015 29.1111 61.8334 27.9701 60.6051 27.1303L53.4725 22.2786L43.4723 15.1357L35.2849 9.64044L31.6136 7.07082C28.4034 4.82525 24.2253 1.40214 20.2663 2.03656C18.3941 2.33779 16.8278 3.97176 16.1977 5.56922L20.9969 8.73674C26.3258 12.2557 31.5222 15.656 36.737 19.3621L44.1664 24.6428L50.4542 29.5539L58.7146 35.7383L63.5504 39.595L64.6782 37.815L64.6828 37.8104ZM49.8286 58.4769L52.4405 55.0219L54.4223 52.5161L59.9201 44.8438L61.7878 42.1144L45.897 31.6579L37.116 25.7245C31.2985 21.7948 25.9194 17.6368 20.3667 13.3511L14.636 8.92387C14.2935 8.65915 13.4853 7.82391 13.12 8.24837C9.62677 12.3333 6.51711 16.441 3.64947 20.9641C2.79557 22.3105 1.90057 23.9765 2.09235 25.615C2.48962 28.9468 4.31158 31.6899 6.76369 33.9081C11.467 38.1573 16.6863 41.5393 21.9786 45.0309L25.7458 47.5184L34.5451 53.3742L39.9151 56.9982C41.6458 58.1666 43.7143 58.9562 45.6458 59.691C47.2715 60.3117 48.7555 59.8873 49.824 58.4769H49.8286Z" fill="#131313"/>
<path d="M155.909 73.0504L159.671 69.3443L162.48 66.8158L151.452 55.0768L143.502 46.341L140.694 43.4473L137.484 40.152L134.05 36.8338L128.346 41.7905L123.885 45.5468L120.196 48.2579C119.976 47.1351 120.579 46.7883 121.154 46.2816L125.392 42.5481L131.264 37.4728C132.264 36.6102 133.109 35.6837 134.598 35.5376L144.004 44.5746L149.041 49.755L152.899 53.8718L156.228 57.7559L162.42 64.7482C162.964 65.3598 163.502 65.8984 163.9 66.7017C162.945 68.1668 161.845 69.1618 160.598 70.2526L156.868 73.516L154.132 76.0399L151.598 78.532C151.484 78.6415 150.927 78.8058 150.89 78.6826L150.689 78.0208L155.9 73.055L155.909 73.0504Z" fill="#131313"/>
<path d="M147.461 75.8072C147.872 74.7757 149.009 73.9222 149.822 73.2148L152.512 70.8642L157.808 66.1038L153.27 61.4529L150.539 58.4497L143.183 50.3575L134.488 41.5395L128.986 46.4049L123.515 50.7956C123.287 50.5948 123.077 50.4396 123.104 50.3529C123.146 50.216 123.328 49.8782 123.429 49.787L126.26 47.1671C128.566 45.0357 130.589 42.8951 133.187 41.115C133.621 40.8184 134.534 40.5217 134.991 40.613L137.109 42.5026L143.644 48.8741L148.041 53.4748L150.9 56.5875L156.32 62.8587L159.096 66.0034L157.224 68.1303L153.292 71.4211L149.256 75.1135C148.858 75.4786 148.461 76.606 147.461 75.8072Z" fill="#131313"/>
</svg>
