<svg width="100" height="100" viewBox="0 0 100 100" fill="none" xmlns="http://www.w3.org/2000/svg">
<path d="M56.5835 68.2917C56.5832 72.206 55.4223 76.0323 53.2476 79.287C51.0729 82.5416 47.9821 85.0784 44.3658 86.5766C40.7495 88.0749 36.7699 88.4671 32.9307 87.7034C29.0914 86.9398 25.5648 85.0546 22.7971 82.2865C20.029 79.5187 18.1439 75.9921 17.3802 72.1529C16.6166 68.3136 17.0087 64.3341 18.507 60.7177C20.005 57.1013 22.5417 54.0104 25.7964 51.8356C29.0511 49.6609 32.8775 48.5001 36.7919 48.5" stroke="#131313" stroke-width="10" stroke-linecap="round"/>
<path d="M56.5835 68.2917V11C56.5835 20.375 69.0835 37.0417 83.6668 37.0417" stroke="#131313" stroke-width="10" stroke-linecap="round" stroke-linejoin="round"/>
</svg>
