<svg width="1048" height="1082" viewBox="0 0 1048 1082" fill="none" xmlns="http://www.w3.org/2000/svg">
<path d="M670.33 1046.95C637.826 1059.84 586.561 1041.57 562.36 1014.98C555.243 1018.29 548.59 1021.99 540.913 1023.87C506.869 1032.2 469.62 1028.39 437.266 1013.82C432.316 1011.59 427.708 1008.06 423.577 1004.76C404.83 1022.9 388.687 1030.58 365.604 1039.6C352.501 1044.72 338.281 1046.69 324.36 1045.03C315.034 1043.91 304.999 1037.79 304.658 1032.35C304.577 1031 306.581 1029.06 307.535 1027.59L338.99 979.18C368.181 930.838 390.623 879.373 408.374 825.617C432.071 753.166 445.705 677.196 443.565 599.74C391.645 629.781 324.987 640.786 266.414 630.531C246.904 627.122 228.579 622.622 211.004 614.317C193.43 606.013 178.555 595.731 166.243 581.535C145.587 557.712 143.215 525.461 160.939 499.333C165.807 492.16 171.833 486.065 177.982 480.119C125.299 445.673 116.751 374.64 139.193 319.302C151.123 292.97 170.92 268.642 198.734 257.392C189.667 241.041 186.381 222.659 189.817 203.841C200.751 143.826 263.756 103.079 323.815 119.962C331.518 102.657 341.144 87.8609 352.624 73.4743C363.068 60.3694 375.966 50.5374 389.791 41.1418C427.353 17.4004 473.655 10.6093 515.376 25.3914C527.756 29.7824 538.596 34.7189 549.299 41.81C574.167 58.2694 594.237 80.0199 608.403 105.479C637.908 82.7472 677.215 79.0653 710.415 91.1883C721.963 95.402 733.184 99.6839 742.278 107.361L761.175 123.303C783.44 146.362 796.475 176.158 795.97 209.35C844.276 208.382 883.639 245.378 891.478 292.574C896.387 318.02 890.647 343.357 876.753 364.971C902.181 376.535 914.248 397.522 919.783 423.963C925.973 459.814 916.279 496.865 892.365 524.275L876.222 539.22C897.477 566.616 883.148 606.258 861.006 631.077C844.413 648.914 825.557 661.118 800.36 663.614C778.518 732.138 692.281 739.611 633.204 712.801L606.563 697.256C592.219 686.946 580.712 675.028 570.486 659.891C569.273 689.66 570.868 717.124 574.181 745.816C580.821 803.171 593.01 858.918 610.776 913.724C618.561 937.738 627.464 960.047 638.03 982.834C646.743 1001.63 656.328 1019.3 669.158 1035.54C670.603 1037.38 672.703 1039.06 672.948 1040.63C673.193 1042.19 672.007 1046.35 670.357 1046.99L670.33 1046.95ZM520.394 549.748C506.76 549.325 493.807 542.261 484.767 532.907C465.557 513.038 456.231 485.997 452.454 458.069C440.797 462.269 429.385 465.105 416.419 467.192C420.277 473.069 423.44 478.442 425.404 484.66C432.085 498.72 437.729 512.765 441.138 528.175C454.527 588.721 453.299 649.159 443.251 710.374C430.939 785.362 408.102 857.377 375.666 925.983C364.758 949.07 352.637 970.425 339.889 992.366C331.954 1006.03 323.174 1018.08 313.33 1031.26C328.6 1043.74 366.572 1033.69 381.556 1023.95L404.502 1009.04L417.837 997.807C420.536 995.53 422.99 994.044 426.344 996.239C432.766 1000.45 439.079 1004.87 446.55 1007.86C473.028 1018.44 502.178 1021.69 530.51 1017.72C539.932 1016.39 548.944 1013.78 556.238 1008.59L559.879 1006C560.738 1005.4 563.151 1007.04 563.969 1007.71L582.593 1022.97C592.519 1031.11 604.736 1035.47 617.034 1039.64C632.454 1044.88 648.965 1046.05 665.149 1041.25C643.212 1013.9 628.118 980.966 615.534 948.865C590.679 882.7 574.358 814.094 566.723 743.579C562.333 703.065 559.511 637.922 573.377 602.181C575.817 595.881 577.971 589.349 584.898 585.599C578.34 604.608 573.499 623.099 571.809 643.05C584.475 665.932 603.263 683.346 625.978 696.206C639.558 703.897 653.696 708.765 669.089 712.501C688.655 717.247 709.365 717.86 728.78 712.815C758.08 705.206 780.986 689.142 789.18 659.537L795.248 652.091C834.433 650.864 868.014 617.699 875.172 579.844C877.585 567.121 875.663 553.307 866.909 544.293C865.069 542.63 860.665 542.616 860.706 539.22C860.733 537.243 861.742 533.657 863.678 532.688C874.095 527.493 881.784 520.729 888.861 511.429C907.608 486.828 915.079 454.919 909.189 424.345C906.681 411.336 901.622 399.772 893.455 389.763C875.935 368.299 865.001 373.099 863.883 370.78C863.187 369.335 863.024 366.43 863.092 364.208C875.854 346.998 881.907 327.348 881.948 305.638C881.58 278.665 868.873 253.737 847.862 236.991C834.501 226.341 810.409 216.986 793.884 218.159C791.116 218.35 788.308 219.564 786.167 217.423C784.776 216.032 785.035 213.168 785.131 210.291C786.453 167.308 762.212 127.257 724.049 107.102C692.731 90.561 655.046 90.1246 623.428 105.957L612.221 112.707L615.793 122.525C616.161 123.534 613.83 126.48 613.012 125.921L610.121 123.93C598.164 102.029 583.834 82.2972 565.605 65.3468C554.602 55.8557 543.763 48.301 530.77 41.6054C490.971 21.0822 442.297 19.9913 402.648 41.5645C393.759 46.4055 385.619 51.5193 378.161 58.1058C353.769 79.6789 337.04 102.466 326.664 133.462C326.051 135.276 324.674 137.526 323.324 137.73C321.865 137.948 318.974 137.007 318.47 135.753C318.034 134.676 318.443 132.166 318.92 130.025C268.173 113.839 211.141 150.385 200.397 202.504C196.716 220.341 198.897 238.028 207.228 253.874C210.268 252.96 214.672 252.278 216.526 253.478C217.931 255.278 215.817 258.278 213.936 259.055C174.533 275.269 147.373 310.779 138.334 352.139C128.612 396.595 144.101 445.755 181.732 471.733C184.118 473.383 189.08 474.869 188.617 478.715C187.254 483.133 182.931 487.006 179.755 490.647C160.694 512.533 150.973 539.166 165.575 565.594C180.245 592.158 208.85 605.549 237.196 614.74C291.242 632.25 374.466 626.809 424.586 599.563L442.91 589.594C441.11 547.184 429.699 505.824 408.62 468.201C386.832 469.046 365.276 465.419 345.329 456.323C335.281 451.741 327.25 444.841 319.179 437.573L319.397 432.459C319.438 431.355 322.874 431.286 324.06 431.491C333.686 440.068 344.334 445.414 356.223 450.8C380.67 460.51 407.393 460.919 433.134 454.891C446.823 451.687 467.206 442.196 478.414 433.427C489.771 424.55 500.583 414.718 506.787 401.258C506.514 392.981 506.337 383.19 511.818 382.426C515.676 381.881 513.099 394.399 520.121 409.372C527.402 424.891 537.464 438.227 549.598 450.405C561.815 462.664 583.657 478.769 600.182 476.778C602.636 476.478 607.19 476.328 607.272 479.669C607.967 507.706 620.988 533.193 644.03 549.298C654.16 556.375 664.999 561.325 676.929 565.648C702.916 575.058 731.371 575.889 758.19 569.48C760.835 568.853 763.848 568.607 765.334 570.339C766.411 571.594 766.725 574.989 765.852 576.326C764.775 577.989 762.007 578.439 759.771 578.944C739.497 583.512 719.441 585.217 698.935 581.249C682.287 578.03 666.09 573.994 651.801 565.075C623.183 547.184 600.318 521.602 599.241 486.842C581.898 487.66 562.537 475.087 549.489 463.851L536.155 451.578C525.493 439.55 516.181 427.332 510.059 411.609C497.734 430.277 481.563 444.009 461.521 453.814C466.088 483.447 475.755 516.256 500.27 533.629C514.367 543.625 533.251 542.139 546.844 531.652C553.811 526.266 559.606 520.947 565.142 514.006C566.055 512.861 569.218 511.974 570.173 512.888C570.991 513.665 571.4 516.652 570.786 517.661C559.865 535.361 541.227 550.375 520.407 549.721L520.394 549.748Z" fill="#131313"/>
<path d="M467.739 227.596C446.824 202.218 415.819 191.309 385.646 205.573C358.664 218.323 339.794 242.841 327.987 269.774C326.583 272.992 325.383 275.119 321.552 274.942C319.438 274.847 316.316 271.138 317.475 268.301C333.413 229.559 366.408 192.55 410.079 189.495C427.899 188.254 445.76 193.913 459.353 205.054C467.139 211.436 473.342 218.105 477.583 227.146C478.496 229.096 476.737 233.269 474.692 232.655C472.156 231.891 469.416 229.655 467.725 227.596H467.739Z" fill="#131313"/>
<path d="M761.557 385.849C740.737 367.726 708.519 367.48 687.468 384.581C672.034 397.113 672.648 410.681 665.34 408.063C658.032 405.445 667.862 381.785 690.618 369.458C710.524 358.671 735.352 358.903 755.435 369.09C779.186 381.131 792.466 405.336 788.239 431.545C787.857 433.891 786.78 436.673 785.281 437.341C783.604 438.077 779.718 437.859 778.641 436.618C777.195 434.968 777.195 431.6 777.727 429.091C781.081 412.891 774.632 397.249 761.557 385.863V385.849Z" fill="#131313"/>
<path d="M247.558 500.574C252.493 500.438 256.174 501.12 260.292 502.674C288.583 513.393 325 512.452 344.116 488.328C351.478 479.042 348.451 471.637 353.469 470.792C354.723 470.574 356.986 473.042 356.836 474.46C354.423 496.551 339.794 509.806 319.179 516.679C297.405 523.947 273.231 520.947 253.679 509.411C250.312 507.42 248.457 505.102 247.544 500.561L247.558 500.574Z" fill="#131313"/>
<path d="M507.195 597.285C523.147 602.372 528.697 594.544 532.882 599.753C541.417 610.363 507.373 617.754 483.458 597.449C458.834 576.53 456.885 546.98 462.516 548.002C463.675 548.207 465.802 550.021 466.183 551.166C470.206 562.934 475.455 572.712 483.458 582.053C489.73 589.376 497.842 594.312 507.182 597.285H507.195Z" fill="#131313"/>
<path d="M608.717 987.88C609.63 988.603 609.944 992.435 609.098 993.13C608.076 993.962 604.681 994.398 603.59 993.635C595.928 988.316 589.015 982.548 583.071 975.348C565.619 954.197 555.938 928.042 556.743 900.66C556.811 898.532 559.361 896.064 560.901 895.914C562.987 895.71 565.864 898.11 565.81 900.51C564.91 933.006 583.18 967.507 608.717 987.893V987.88Z" fill="#131313"/>
<path d="M367.907 1005.05C348.301 1022.94 339.684 1017.55 345.193 1012.63L368.671 991.643C380.86 980.748 398.312 955.97 398.966 937.738C399.034 935.692 402.348 933.701 404.311 933.933C412.478 934.888 409.697 948.838 404.147 959.693C395.217 977.202 382.36 991.848 367.894 1005.05H367.907Z" fill="#131313"/>
<path d="M479.368 720.861C476.464 730.679 470.288 747.057 464.902 744.002C463.907 743.443 463.293 741.288 463.116 739.502C471.338 723.015 474.324 705.642 474.133 687.246C474.242 679.692 473.083 673.064 469.892 666.259C468.979 664.296 470.329 660.914 472.306 660.246C474.078 659.646 477.064 661.064 477.937 663.191C485.586 681.819 485.067 701.647 479.368 720.861Z" fill="#131313"/>
<path d="M478.25 795.63C477.841 812.267 470.274 842.8 462.693 838.409C457.13 835.19 470.928 814.463 468.229 792.726C467.997 790.83 466.279 787.967 466.961 786.535C468.024 784.312 471.828 783.276 474.187 784.926C477.091 786.957 478.345 791.717 478.25 795.644V795.63Z" fill="#131313"/>
</svg>
