<svg width="1048" height="1082" viewBox="0 0 1048 1082" fill="none" xmlns="http://www.w3.org/2000/svg">
<path d="M675.295 1077.6C641.441 1091.02 588.049 1071.99 562.843 1044.31C555.431 1047.76 548.501 1051.61 540.506 1053.57C505.048 1062.24 466.253 1058.28 432.556 1043.1C427.401 1040.79 422.601 1037.11 418.299 1033.68C398.773 1052.56 381.96 1060.55 357.919 1069.95C344.273 1075.27 329.462 1077.33 314.963 1075.6C305.25 1074.43 294.799 1068.06 294.444 1062.4C294.359 1060.99 296.446 1058.97 297.44 1057.44L330.2 1007.04C360.603 956.719 383.977 903.142 402.465 847.18C427.145 771.755 441.346 692.668 439.116 612.033C385.042 643.307 315.617 654.764 254.612 644.088C234.292 640.539 215.207 635.854 196.903 627.209C178.598 618.563 163.106 607.859 150.283 593.081C128.77 568.28 126.299 534.706 144.759 507.506C149.829 500.038 156.105 493.693 162.51 487.503C107.64 451.643 98.7362 377.695 122.11 320.086C134.535 292.673 155.154 267.347 184.122 255.635C174.679 238.614 171.257 219.477 174.835 199.886C186.224 137.408 251.843 94.9897 314.395 112.565C322.419 94.5496 332.444 79.1467 344.401 64.1696C355.278 50.5269 368.711 40.2914 383.111 30.5102C422.232 5.79441 470.456 -1.27534 513.909 14.1134C526.803 18.6846 538.092 23.8237 549.239 31.2058C575.141 48.3407 596.043 70.9838 610.797 97.4883C641.527 73.823 682.466 69.99 717.044 82.6106C729.071 86.9972 740.758 91.4548 750.23 99.4474L769.911 116.043C793.1 140.049 806.676 171.068 806.15 205.621C856.462 204.613 897.458 243.128 905.623 292.261C910.735 318.752 904.757 345.128 890.287 367.63C916.77 379.668 929.337 401.516 935.103 429.043C941.55 466.365 931.453 504.936 906.546 533.471L889.733 549.03C911.871 577.55 896.947 618.819 873.885 644.656C856.604 663.225 836.965 675.93 810.723 678.528C787.974 749.865 698.157 757.644 636.628 729.734L608.88 713.551C593.942 702.818 581.957 690.411 571.306 674.653C570.043 705.643 571.704 734.234 575.155 764.103C582.07 823.813 594.765 881.848 613.268 938.902C621.377 963.902 630.649 987.127 641.654 1010.85C650.728 1030.41 660.711 1048.81 674.074 1065.72C675.579 1067.63 677.766 1069.38 678.021 1071.01C678.277 1072.65 677.042 1076.98 675.323 1077.64L675.295 1077.6ZM519.135 559.989C504.934 559.549 491.444 552.196 482.029 542.457C462.021 521.773 452.308 493.622 448.375 464.548C436.234 468.92 424.348 471.873 410.844 474.045C414.862 480.164 418.157 485.757 420.202 492.23C427.16 506.867 433.039 521.489 436.589 537.531C450.533 600.562 449.255 663.48 438.79 727.207C425.967 805.273 402.181 880.243 368.399 951.665C357.039 975.699 344.415 997.931 331.138 1020.77C322.873 1035 313.728 1047.55 303.475 1061.26C319.38 1074.25 358.927 1063.79 374.534 1053.65L398.433 1038.13L412.32 1026.44C415.132 1024.07 417.688 1022.52 421.181 1024.8C427.87 1029.19 434.444 1033.79 442.226 1036.9C469.803 1047.92 500.163 1051.29 529.671 1047.16C539.484 1045.79 548.87 1043.06 556.467 1037.67L560.259 1034.97C561.153 1034.34 563.667 1036.05 564.519 1036.74L583.916 1052.63C594.254 1061.1 606.977 1065.65 619.786 1069.99C635.847 1075.44 653.043 1076.66 669.899 1071.67C647.051 1043.19 631.331 1008.9 618.224 975.486C592.337 906.606 575.339 835.184 567.387 761.775C562.815 719.598 559.875 651.782 574.317 614.574C576.859 608.015 579.102 601.215 586.316 597.311C579.486 617.101 574.445 636.351 572.684 657.12C585.876 680.942 605.444 699.07 629.101 712.457C643.245 720.464 657.971 725.532 674.003 729.422C694.38 734.362 715.95 735.001 736.171 729.748C766.688 721.827 790.544 705.104 799.079 674.284L805.398 666.532C846.209 665.255 881.184 630.729 888.64 591.32C891.153 578.075 889.151 563.695 880.034 554.311C878.117 552.579 873.531 552.565 873.573 549.03C873.602 546.971 874.652 543.238 876.669 542.23C887.518 536.821 895.527 529.78 902.897 520.098C922.422 494.488 930.204 461.268 924.069 429.44C921.456 415.897 916.188 403.858 907.682 393.438C889.435 371.093 878.046 376.09 876.882 373.677C876.158 372.172 875.987 369.148 876.058 366.834C889.35 348.919 895.654 328.462 895.697 305.861C895.314 277.781 882.079 251.83 860.196 234.397C846.28 223.31 821.188 213.571 803.978 214.792C801.095 214.991 798.17 216.254 795.94 214.026C794.492 212.578 794.762 209.596 794.861 206.601C796.238 161.854 770.99 120.16 731.244 99.1776C698.626 81.9575 659.376 81.5032 626.446 97.9851L614.773 105.012L618.494 115.234C618.877 116.284 616.449 119.351 615.597 118.769L612.587 116.696C600.133 93.8966 585.208 73.3546 566.223 55.7086C554.763 45.828 543.474 37.9632 529.941 30.9928C488.491 9.62741 437.796 8.49171 396.501 30.9502C387.243 35.9899 378.765 41.3135 370.998 48.1703C345.593 70.6289 328.17 94.3509 317.363 126.619C316.724 128.507 315.29 130.85 313.884 131.062C312.365 131.29 309.354 130.31 308.829 129.004C308.375 127.883 308.801 125.27 309.298 123.042C256.444 106.191 197.045 144.237 185.855 198.495C182.021 217.064 184.293 235.476 192.969 251.972C196.136 251.021 200.722 250.311 202.654 251.561C204.116 253.435 201.915 256.558 199.956 257.367C158.917 274.246 130.63 311.213 121.215 354.271C111.09 400.551 127.222 451.728 166.415 478.772C168.9 480.49 174.069 482.037 173.586 486.041C172.166 490.64 167.664 494.672 164.356 498.463C144.504 521.248 134.379 548.973 149.587 576.485C164.867 604.14 194.659 618.08 224.181 627.649C280.471 645.877 367.149 640.213 419.35 611.848L438.435 601.471C436.56 557.32 424.675 514.263 402.721 475.095C380.029 475.976 357.578 472.199 336.803 462.73C326.338 457.961 317.974 450.777 309.567 443.211L309.795 437.887C309.837 436.737 313.416 436.666 314.651 436.879C324.676 445.809 335.767 451.373 348.149 456.981C373.611 467.089 401.443 467.515 428.253 461.24C442.51 457.904 463.74 448.023 475.412 438.895C487.241 429.653 498.502 419.418 504.963 405.406C504.679 396.789 504.494 386.596 510.203 385.801C514.221 385.233 511.538 398.265 518.851 413.853C526.434 430.008 536.913 443.892 549.552 456.569C562.275 469.332 585.024 486.098 602.235 484.025C604.791 483.713 609.534 483.556 609.619 487.035C610.343 516.222 623.904 542.755 647.903 559.521C658.453 566.889 669.743 572.042 682.168 576.542C709.233 586.338 738.869 587.204 766.801 580.531C769.556 579.878 772.694 579.623 774.242 581.426C775.364 582.732 775.691 586.267 774.782 587.658C773.66 589.39 770.777 589.858 768.449 590.384C747.333 595.139 726.444 596.914 705.087 592.783C687.749 589.432 670.879 585.23 655.997 575.946C626.19 557.32 602.377 530.688 601.255 494.502C583.192 495.354 563.028 482.265 549.438 470.567L535.55 457.79C524.446 445.269 514.747 432.549 508.371 416.181C495.534 435.616 478.692 449.911 457.818 460.118C462.575 490.967 472.643 525.123 498.175 543.209C512.858 553.615 532.526 552.068 546.683 541.151C553.94 535.543 559.975 530.007 565.74 522.781C566.691 521.588 569.986 520.666 570.98 521.617C571.832 522.426 572.258 525.535 571.619 526.585C560.244 545.012 540.833 560.642 519.149 559.961L519.135 559.989Z" fill="#131313"/>
<path d="M463.444 223.777C441.566 197.399 409.134 186.06 377.572 200.886C349.347 214.139 329.609 239.624 317.258 267.617C315.789 270.962 314.534 273.174 310.526 272.989C308.316 272.89 305.05 269.035 306.262 266.087C322.934 225.818 357.448 187.35 403.13 184.175C421.77 182.885 440.453 188.767 454.673 200.348C462.816 206.981 469.305 213.912 473.741 223.309C474.696 225.336 472.857 229.674 470.717 229.036C468.065 228.242 465.198 225.917 463.429 223.777H463.444Z" fill="#131313"/>
<path d="M769.463 388.607C747.827 369.619 714.346 369.362 692.469 387.278C676.43 400.409 677.068 414.625 669.473 411.882C661.878 409.139 672.094 384.349 695.742 371.433C716.429 360.132 742.23 360.375 763.101 371.048C787.783 383.664 801.584 409.024 797.191 436.485C796.795 438.943 795.675 441.858 794.117 442.558C792.374 443.329 788.336 443.101 787.216 441.8C785.715 440.072 785.714 436.543 786.267 433.914C789.753 416.94 783.051 400.552 769.463 388.622V388.607Z" fill="#131313"/>
<path d="M234.014 508.087C239.162 507.945 243.002 508.656 247.296 510.278C276.804 521.461 314.787 520.48 334.725 495.311C342.404 485.622 339.247 477.896 344.48 477.014C345.788 476.786 348.149 479.362 347.993 480.841C345.476 503.89 330.217 517.72 308.715 524.89C286.005 532.474 260.792 529.344 240.399 517.307C236.887 515.23 234.953 512.811 234 508.073L234.014 508.087Z" fill="#131313"/>
<path d="M504.999 608.659C521.525 613.885 527.274 605.843 531.61 611.195C540.452 622.094 505.183 629.688 480.408 608.827C454.899 587.336 452.879 556.976 458.712 558.027C459.913 558.237 462.117 560.1 462.512 561.277C466.679 573.368 472.117 583.413 480.408 593.01C486.905 600.533 495.309 605.605 504.985 608.659H504.999Z" fill="#131313"/>
<path d="M609.106 1014.67C610.039 1015.41 610.359 1019.36 609.496 1020.07C608.452 1020.93 604.986 1021.38 603.873 1020.59C596.05 1015.12 588.993 1009.18 582.925 1001.77C565.109 980.001 555.226 953.081 556.047 924.897C556.117 922.707 558.72 920.167 560.293 920.013C562.422 919.802 565.359 922.272 565.303 924.743C564.385 958.19 583.036 993.7 609.106 1014.68V1014.67Z" fill="#131313"/>
<path d="M359.136 1033.26C338.897 1051.69 330.002 1046.14 335.688 1041.07L359.924 1019.46C372.507 1008.24 390.522 982.716 391.198 963.938C391.268 961.831 394.688 959.78 396.715 960.019C405.146 961.002 402.274 975.37 396.546 986.55C387.327 1004.58 374.055 1019.67 359.122 1033.26H359.136Z" fill="#131313"/>
<path d="M475.61 737.443C472.642 747.697 466.33 764.799 460.825 761.61C459.808 761.026 459.181 758.776 459 756.91C467.402 739.693 470.454 721.551 470.259 702.341C470.371 694.451 469.186 687.531 465.925 680.425C464.992 678.374 466.371 674.842 468.392 674.145C470.203 673.518 473.255 674.999 474.147 677.22C481.964 696.673 481.434 717.379 475.61 737.443Z" fill="#131313"/>
<path d="M473.995 815.784C473.583 832.81 465.97 864.057 458.343 859.563C452.746 856.269 466.628 835.057 463.912 812.812C463.679 810.872 461.951 807.941 462.637 806.476C463.707 804.201 467.534 803.141 469.907 804.829C472.829 806.909 474.091 811.779 473.995 815.798V815.784Z" fill="#131313"/>
</svg>
